<?xml version="1.0" encoding="utf-8"?>
<!-- Generator: Adobe Illustrator 27.0.0, SVG Export Plug-In . SVG Version: 6.00 Build 0)  -->
<svg version="1.1" xmlns="http://www.w3.org/2000/svg" xmlns:xlink="http://www.w3.org/1999/xlink" x="0px" y="0px"
	 viewBox="0 0 595.3 242.6" style="enable-background:new 0 0 595.3 242.6;" xml:space="preserve">
<style type="text/css">
	.st0{fill:#E83B44;}
	.st1{fill:#E7EBF8;stroke:#E7EBF7;stroke-miterlimit:10;enable-background:new    ;}
	.st2{fill:#F0F2FA;stroke:#F1F2FA;stroke-miterlimit:10;enable-background:new    ;}
	.st3{fill:#E7EBF7;enable-background:new    ;}
	.st4{fill:#C39B92;stroke:#C59B92;stroke-miterlimit:10;enable-background:new    ;}
	.st5{fill:#3A3D4A;stroke:#3A3D4A;stroke-miterlimit:10;enable-background:new    ;}
	.st6{fill:#8F726F;stroke:#8F726E;stroke-miterlimit:10;enable-background:new    ;}
	.st7{fill:#D6BFBE;stroke:#D6BFBE;stroke-miterlimit:10;enable-background:new    ;}
	.st8{fill:#B2C2E2;stroke:#B2C2E2;stroke-miterlimit:10;enable-background:new    ;}
	.st9{fill:#3A3D4A;enable-background:new    ;}
	.st10{fill:#B2C2E2;enable-background:new    ;}
	.st11{fill:#8F726E;enable-background:new    ;}
	.st12{fill:#D8E0F3;stroke:#D8E0F3;stroke-miterlimit:10;enable-background:new    ;}
	.st13{fill:#FFFFFF;stroke:#FEFEFE;stroke-miterlimit:10;enable-background:new    ;}
	.st14{fill:#777778;stroke:#777778;stroke-miterlimit:10;enable-background:new    ;}
	.st15{fill:#C49B92;stroke:#C59B92;stroke-miterlimit:10;enable-background:new    ;}
	.st16{opacity:0.82;fill:#777778;stroke:#777778;stroke-miterlimit:10;enable-background:new    ;}
	.st17{fill:#9F8383;stroke:#A08384;stroke-miterlimit:10;enable-background:new    ;}
	.st18{fill:#C6A7A3;stroke:#C5A6A3;stroke-miterlimit:10;enable-background:new    ;}
	.st19{fill:#D0D9F0;stroke:#D0D9F0;stroke-miterlimit:10;enable-background:new    ;}
	.st20{fill:#C9D6EF;stroke:#C9D5EE;stroke-miterlimit:10;enable-background:new    ;}
	.st21{fill:#92AACF;stroke:#92AACF;stroke-miterlimit:10;enable-background:new    ;}
	.st22{fill:#D8E0F3;enable-background:new    ;}
	.st23{fill:#C9D5EE;enable-background:new    ;}
	.st24{fill:#53A0D8;enable-background:new    ;}
	.st25{fill:#D0D9F0;enable-background:new    ;}
	.st26{fill:#7EC4EE;enable-background:new    ;}
	.st27{fill:#C5A6A3;enable-background:new    ;}
	.st28{fill:#92AACF;enable-background:new    ;}
	.st29{fill:#A08384;enable-background:new    ;}
	.st30{fill:#C59B92;enable-background:new    ;}
	.st31{fill:#F1F2FA;}
	.st32{fill:#D6BFBE;}
	.st33{fill:#C5A6A3;}
	.st34{fill:#E7EBF8;stroke:#E7EBF7;stroke-miterlimit:10;}
	.st35{fill:#777778;}
	.st36{fill:#3A3D4A;}
	.st37{fill:#8F726E;}
	.st38{fill:#C9D6EF;stroke:#C9D5EE;stroke-miterlimit:10;}
	.st39{fill:#A08384;}
	.st40{fill:#F0F2FA;stroke:#F1F2FA;stroke-miterlimit:10;}
	.st41{fill:#D8E0F3;stroke:#D8E0F3;stroke-miterlimit:10;}
	.st42{fill:#C9D5EE;}
	.st43{fill:#C49B92;stroke:#C59B92;stroke-miterlimit:10;}
	.st44{fill:#B2C2E2;stroke:#B2C2E2;stroke-miterlimit:10;}
	.st45{fill:#B2C2E2;}
	.st46{fill:#D0D9F0;stroke:#D0D9F0;stroke-miterlimit:10;}
	.st47{fill:#D8E0F3;}
	.st48{fill:#E7EBF7;}
	.st49{fill:#D0D9F0;}
</style>
<g id="Capa_2">
	<polygon class="st0" points="1,82.7 594.2,62.7 594.2,177.3 1,157.3 	"/>
</g>
<g id="Capa_3">
</g>
<g id="Capa_1">
	<path class="st1" d="M355.8,98.1c3.7-2.8,7.8-5.2,10.9-8.4c2.1-2.1,4.1-5.5,3.7-8c-1.3-8.9-3.6-17.8-5.5-26.6
		c-1.6,3.8-2.8,7.7-4.7,11.3c-5.2,9.6-14.6,13.8-24.7,10.5c2.3-8.6,4.6-17.3,6.9-26.1c-2.2-2.3-5-5.3-7.8-8.3
		c-0.3-0.2-0.7-0.3-1.1-0.3c-1.1,1.5-2.3,3.1-3.4,4.6c1.2,0.2,2.4,0.4,3.6,0.5c-2.2,4.4-5,8.2-6,12.3c-0.9,3.6,0.3,7.5,0.6,11.9
		c-3.9-2.4-7.9-4.8-11.9-7.2c-7-5.2-11.7-1.3-16.4,3.2c0,1.9,0,3.8-0.1,5.7c3.3,2,6.7,3.9,10,5.9c0.3-2.3,0.6-4.6,1-8
		c6.1,6.4,11.1,11.7,16,17c1.9,0.1,3.8,0.3,5.7,0.4c3.8-1,7.6-1.9,12.8-3.2c-2.3,2.9-3.4,4.4-4.6,5.9
		C345.9,93.5,350.9,95.8,355.8,98.1L355.8,98.1z"/>
	<path class="st2" d="M305.2,82.3c-8.4-2.7-16.7-5.9-25.3-7.9c-4.2-1-9,0.1-13.6,0.3c-0.3,7.1-0.7,14.1-1,21.2c-1,0-1.9-0.1-2.9-0.1
		V84.4c-6.8,9.2-6.4,16.7-1.6,26.2c3.4-4.4,6-7.8,8.5-11.2c1.1-0.5,2.3-1.6,3.4-1.5c2.1,0.1,4.2,0.9,6.6,1.4
		c-1-4.6-1.6-8.1-2.4-11.5c0.7-0.2,1.4-0.3,2.1-0.5c3,3.9,5.7,8,9,11.7c1,1.2,3.3,6,5.5,0.4c-0.4-0.5-0.8-1-1.1-1.5
		c0.2-0.1,0.4-0.2,0.6-0.3c0.2,0.6,0.4,1.2,0.6,1.8c2,1.8,4.1,3.7,6.1,5.5c4.1,4.1,8.2,8.1,12.2,12.2c1.5,0.2,3,0.4,4.5,0.6
		c-1.5-3-3-5.9-4.5-8.9c0.5-0.2,1-0.4,1.4-0.7c2.4,1.8,4.9,3.6,8.5,6.2c1-8.9,2-16-3.9-22.1c-3.1-2.3-6.1-4.5-9.2-6.8
		C307.6,84.4,306.4,83.3,305.2,82.3L305.2,82.3z"/>
	<path class="st3" d="M269.3,99.3c-2.6,3.4-5.1,6.7-8.5,11.2c-4.8-9.5-5.1-17,1.6-26.2v11.4c1,0,1.9,0.1,2.9,0.1
		c0.3-7.1,0.7-14.1,1-21.2c-1.9,1.5-3.7,3-5.6,4.6c-1.7,2.1-3.4,4.2-5,6.3c-1.5,1.9-3,3.7-4.5,5.6c-4,4.6-8.1,9.2-12.2,13.9
		c-8,7.2-3.2,13.2,2.4,19.1c1.7,1.8,3.4,3.7,5.2,5.5c1.5,0.5,2.9,1.1,4.4,1.6c2.4-3.3,4.4-6.9,7.5-9.7c2.6-2.4,6.4-3.7,9.7-5.5
		c1-0.9,2-1.8,2.9-2.7c-1.5-1-3-2.1-5.1-3.6c2.9-1.9,5.2-3.5,8.1-5.4C272.4,102.7,270.8,101,269.3,99.3L269.3,99.3z"/>
	<path class="st4" d="M349.8,30.3c-0.2-1.9-0.3-3.8-0.5-5.7c-3.4-3.8-6.8-7.6-10.7-11.9c-7.6,5.6-11.4,0.7-14.4-5.8
		c-1,0.5-1.9,0.9-2.9,1.4l-0.1,0.1c-0.9,0.8-1.8,1.6-2.6,2.4c-0.2,0.4-0.3,0.9-0.5,1.3c1.8,3.3,4,6.4,5.1,9.8
		c1.3,4.2,1.6,8.7,2.2,11.8c4.4,2.1,8.4-4.9,10.9,2h-0.1c2.2,0,4.3,0.1,6.5,0.2c0.9,0,1.8,0,2.7-0.1
		C346.9,33.9,348.3,32.1,349.8,30.3L349.8,30.3z"/>
	<path class="st5" d="M324.2,6.9c3.1,6.5,6.8,11.4,14.4,5.8c3.9,4.4,7.3,8.2,10.7,11.9c0.5-5,0.9-9.9,1.4-14.9
		c-4.5-3.2-9-6.4-13.5-9.7c-4.6,0.9-9.4,1.4-13.8,3c-2,0.7-3,3.5-4.5,5.3c0.8,0,1.5,0,2.3,0.1l0.1-0.1
		C322.2,7.8,323.2,7.3,324.2,6.9L324.2,6.9z"/>
	<path class="st6" d="M336.3,35.7c-2.4-6.9-6.5,0.1-10.9-2c-0.5-3.1-0.9-7.6-2.2-11.8c-1.1-3.4-3.4-6.6-5.1-9.8
		c-1.8,8.8-1.4,17.5,5.2,24.6c2.4,2.6,6.8,3.7,10.2,5.5c0.4,0,0.8,0.1,1.1,0.3c2.7-2.2,5.4-4.4,8.1-6.6
		C340.5,35.8,338.4,35.7,336.3,35.7c-0.2,0.1-0.4,0.2-0.6,0.3C335.8,35.9,336,35.8,336.3,35.7L336.3,35.7z"/>
	<path class="st7" d="M300.2,67.5c4.6-4.5,9.4-8.4,16.4-3.2c0-1.2-0.1-2.4-0.1-3.6c-0.5-0.1-1-0.3-1.5-0.4c-0.9-1.2-1.8-2.4-2.6-3.6
		c-0.6-0.4-1.3-0.7-1.9-1.1c-10-6.1-11.4-5.7-15.9,4.8C296.4,62.8,298.3,65.2,300.2,67.5z"/>
	<path class="st8" d="M316.4,60.7c0,1.2,0.1,2.4,0.1,3.6c4,2.4,8,4.9,11.9,7.2c-0.3-4.4-1.5-8.4-0.6-11.9c1-4.2,3.8-8,6-12.3
		c-1.3-0.2-2.5-0.4-3.6-0.5C325.6,51.4,321,56,316.4,60.7L316.4,60.7z"/>
	<path class="st9" d="M304.7,82.4c1.3,1,2.6,2,4,3c1.3-0.8,2.6-1.5,3.8-2.2c-0.9-1.3-1.7-2.6-2.6-3.9c-3.5-2-7.2-3.8-10.7-5.8
		C301.1,76.4,302.9,79.4,304.7,82.4L304.7,82.4z"/>
	<path class="st10" d="M312.2,56.7c0.9,1.2,1.8,2.4,2.6,3.6C314,59.1,313.1,57.9,312.2,56.7z"/>
	<path class="st11" d="M320.5,8.7c-0.8,0-1.6,0-2.3-0.1c-0.1,0.9-0.2,1.8-0.3,2.7C318.7,10.5,319.6,9.6,320.5,8.7z"/>
	<path class="st1" d="M345.5,203.9c-0.1-2.6-0.2-5.2-0.3-7.8c-1.3-5.5-2.5-11.1-3.7-16.6c-3.5-1.6-8-2.5-10.4-5.1
		c-6.6-7.2-14.8-13.4-16.7-23.6c-0.1-0.6-1.8-1-2.9-1.4c0,1.3,0,2.6,0,3.8c0.6,3.3,1.1,6.5,1.6,9.8c0.1,1.4,0.2,2.7,0.3,4.1
		c0.4,0.5,0.8,1,1.2,1.5c-0.2,7.8-0.4,15.6-0.6,23.4c0.1,3.2,0.1,6.5,0.2,9.7c0.1,5.1,0.3,10.1,0.4,15.2c0.1,5.2,2.8,7.5,8.4,6.9
		c2.6-0.3,5.3,0,8,0c3.9,0.5,7.7,1.1,11.5,1.6c0.9-0.1,1.7-0.1,2.6-0.2c0.1-2.8,0.1-5.5,0.2-8.2c0-3.1-0.1-6.1-0.1-9.2
		C345.5,206.5,345.5,205.2,345.5,203.9L345.5,203.9z"/>
	<path class="st12" d="M311.5,149.7c1,0.5,2.8,0.8,2.9,1.4c1.9,10.1,10.1,16.3,16.8,23.4c2.3,2.6,6.8,3.4,10.4,5.1
		c-2.5-10.6-6.7-21.3,1.4-31.5c0.4-1.4,0.8-2.7,1.3-4.1c-3.3-1.6-6.5-3.3-9.8-4.9c0.3-0.4,0.6-0.9,0.9-1.3c2.6,0.2,5.3,0.4,7.9,0.6
		c0.7-0.9,1.3-1.8,1.9-2.6c-1.9-0.4-3.7-0.7-5.5-1.2c-2.8-0.9-5.6-2.1-8.4-3.1c-8-1.6-15.9-2.3-23.9,0c1,5.1,1.9,10.3,2.8,15.4
		c0.3-0.7,0.7-1.4,1.7-3.5v5.9L311.5,149.7L311.5,149.7z M328,162c-1.1,0.4-2,0.9-3.1,1.3c-4.5-9.7-9.1-19.3-13.5-28.9l2.8-1.1
		C322.5,141.2,323.2,152.4,328,162z M330.5,136.4c0.4,0,0.8-0.1,1.1-0.1c-0.2,0.1-0.3,0.4-0.5,0.4
		C330.9,136.7,330.7,136.5,330.5,136.4z"/>
	<path class="st13" d="M342.7,35.8c-2.7,2.2-5.4,4.4-8.1,6.6c2.8,3,5.6,6,7.8,8.3c-2.3,8.8-4.6,17.5-6.9,26.1
		c10.1,3.3,19.4-0.9,24.7-10.5c2-3.6,3.2-7.5,4.7-11.3c-0.1-7.9-2.8-14.5-11-18.4c-0.8-0.4-1.6-0.8-2.3-1.2
		c-2.1,0.1-4.1,0.2-6.2,0.3C344.5,35.8,343.6,35.8,342.7,35.8L342.7,35.8z"/>
	<path class="st1" d="M349.6,128.4c1.8-4.7,3.6-9.3,5.5-13.9c-0.4-3.4-0.8-6.8-1.2-10.3c-0.8-0.5-1.6-0.9-2.3-1.4
		c-3.5,2.5-7,5.1-10.7,7.5c-2.4,1.6-5.1,2.8-7.6,4.2c4.4,4.8,12.3,6.3,14.4,13.4C347.6,128.3,348.9,128.3,349.6,128.4L349.6,128.4z"
		/>
	<path class="st9" d="M351.9,103c0.8,0.5,1.6,1,2.4,1.5c0.6-2,1-4.1,1.6-6.1c-4.9-2.5-9.9-4.9-14.8-7.4l-0.1,0
		c1.9,1.8,3.9,3.3,5.5,5.2C348.6,98.4,350.2,100.7,351.9,103z"/>
	<path class="st14" d="M345.4,35.8c2.1-0.1,4.1-0.2,6.2-0.3c0.1-0.8,0.3-1.7,0.4-2.5c-0.8-0.9-1.5-1.8-2.2-2.7
		C348.3,32.1,346.8,33.9,345.4,35.8L345.4,35.8z"/>
	<path class="st15" d="M352.7,33.8c0,0.6-0.2,1.2-0.2,1.8c0.8,0.2,1.7,0.4,2.4,0.6C354.2,35.5,353.4,34.6,352.7,33.8z"/>
	<path class="st16" d="M329.1,235.6c-4.7,0.7-9.5,1.4-14.2,2.1c10.6,1.2,21.3,2.5,31.9,3.6c-0.2-1-0.5-1.9-0.7-3
		C340.4,237.4,334.8,236.5,329.1,235.6L329.1,235.6z"/>
	<path class="st17" d="M341.9,226.2c-4-0.5-7.9-1.1-11.9-1.6c0.6,4.8-3,6.3-7.1,7.3c-1.3,0.4-2.6,0.7-3.9,1.1
		c-0.9,0.1-1.7,0.3-2.6,0.4c-1.6,1.3-3.2,2.6-4.8,3.9c1.4,0.4,2.8,0.7,4.2,1.1c4.7-0.5,9.4-1,14.1-1.5
		C329.8,229.6,336,228,341.9,226.2L341.9,226.2z"/>
	<path class="st18" d="M329.5,237.5c5.6,0.6,11.2,1,16.8,1.6c-0.4-3.3-0.7-6.6-1-9.8c-0.4-1-0.9-2-1.4-3c-0.9,0.1-1.8,0.1-2.7,0.3
		C335.4,228.3,329.3,230,329.5,237.5L329.5,237.5z"/>
	<path class="st18" d="M240.4,142.5c1,0.5,2,0.9,3,1.4c9.8,1,9.2-5.6,9.9-11.2c-0.8-0.5-1.7-1-2.5-1.4c-1.5-0.5-2.9-1.1-4.4-1.6
		c4.8,7.6,4.4,10.3-2.3,10.6c-6.5,0.3-13.1-0.9-20.5-1.5c2-2.2,3.3-3.6,4.5-4.9c-4.5-0.8-9-1.5-13.4-2.3c0.5,1.6,1.1,3.3,1.6,5
		c0.9,1.4,1.9,2.8,2.8,4.2c0.5,0.4,1,0.9,1.5,1.3C227.2,142.3,233.8,142.4,240.4,142.5L240.4,142.5z"/>
	<path class="st7" d="M228.2,133.9c-1.2,1.3-2.5,2.7-4.5,4.9c7.4,0.6,14,1.8,20.5,1.5c6.7-0.3,7.1-3.1,2.3-10.6
		c-1.7-1.8-3.5-3.7-5.2-5.5C236.9,127.4,232.5,130.6,228.2,133.9L228.2,133.9z M242.5,133.5c0.4-0.2,0.9-0.5,1.2-0.4
		s0.4,0.7,0.6,1.1c-0.4,0.2-0.9,0.6-1.2,0.4S242.7,133.9,242.5,133.5L242.5,133.5z"/>
	<path class="st19" d="M349.6,128.4c-0.7-0.1-2-0.2-2.1-0.5c-2.1-7.1-10.2-8.6-14.6-13.4c-1.7-0.9-3.7-1.7-5-2.9
		c-3.9-3.2-3.6-13.5,0.3-15.2c4.1-1.8,8.3-3.5,12.5-5.3h0.1c1.2-1.5,2.4-3,4.6-5.9c-5,1.3-8.8,2.3-12.7,3.2c-1.7,1.1-3.2,2.8-5,3.2
		c-3.2,0.6-6.4,0.4-9.7,0.5c5.9,6.1,4.8,13.2,3.9,22.1c-3.6-2.6-6-4.4-8.4-6.2c-0.5,0.2-1,0.4-1.4,0.7c1.5,3,3,5.9,4.5,8.9
		c6.3,3.5,12.8,7,19.5,10.7c-1.8,1.1-3.2,1.9-4.5,2.8c2.9,1.1,5.6,2.2,8.5,3.1c1.8,0.6,3.7,0.8,5.5,1.2
		C346.9,133.1,348.2,130.8,349.6,128.4L349.6,128.4z"/>
	<path class="st20" d="M343,137.2c-2.6-0.2-5.2-0.4-7.8-0.6c-0.3,0.4-0.6,0.9-0.9,1.3c3.3,1.6,6.4,3.4,9.7,5
		C343.7,141,343.4,139.1,343,137.2L343,137.2z"/>
	<path class="st12" d="M310.1,79.1c0.8,1.3,1.6,2.7,2.4,4c4.9,1.7,9.8,3.3,14.7,5c-5-5.3-10-10.6-16-17
		C310.7,74.5,310.4,76.8,310.1,79.1L310.1,79.1z"/>
	<path class="st21" d="M327.2,88.1c-4.8-1.7-9.6-3.3-14.4-5c-1.2,0.8-2.3,1.5-3.5,2.3c2.9,2.3,6,4.5,9,6.8c3.2-0.1,6.4,0.1,9.6-0.5
		c1.9-0.3,3.3-2.1,5-3.2C330.9,88.4,329.1,88.2,327.2,88.1z"/>
	<path class="st12" d="M268.7,99.3c1.5,1.7,3.1,3.4,4.7,5.1c-3,1.9-5.3,3.4-8.3,5.4c2.2,1.5,3.7,2.5,5.2,3.6
		c2.2-2.5,4.5-5.1,6.5-7.4c4.8,2.8,9.8,5.8,14.8,8.7c-0.3-1.2-0.4-2.4-1-3.4c-1-1.8-2.4-3.3-3.5-4.8c4.9-0.6,8.7-1.1,12.4-1.6
		c-2-1.8-4.2-3.7-6.2-5.5l0,0c-2.2,5.6-4.5,0.8-5.6-0.4c-3.4-3.7-6.1-7.8-9.2-11.7c-0.7,0.2-1.4,0.3-2.1,0.5
		c0.7,3.4,1.4,6.9,2.4,11.5c-2.6-0.6-4.6-1.3-6.7-1.4C271,97.8,269.9,98.8,268.7,99.3L268.7,99.3z"/>
	<path class="st10" d="M331.7,131.1c1.4-0.8,2.7-1.7,4.5-2.8c-6.8-3.7-13.3-7.2-19.7-10.7c-1.5-0.2-3-0.4-4.5-0.6
		c-2-0.1-4.2,0.2-6-0.4c-2.3-0.8-4.3-2.2-6.5-3.4c-0.3,0.3-0.6,0.7-0.8,1c0.9,1.5,1.7,3,2.6,4.6c2,4.1,4,8.2,6,12.3
		C315.3,128.8,323.5,129.5,331.7,131.1L331.7,131.1z"/>
	<path class="st19" d="M301.2,119.2c-0.9-1.5-1.7-3.1-2.6-4.7c0.3-0.3,0.6-0.7,0.8-1c2.1,1.2,4.2,2.7,6.5,3.5c1.8,0.6,4,0.3,6,0.4
		c-4.1-4.2-8.2-8.3-12.2-12.5c-3.7,0.5-7.4,1-12.2,1.6c1,1.4,2.4,3.1,3.4,4.9c0.6,1,0.7,2.4,1,3.5
		C295,116.3,298.1,117.7,301.2,119.2L301.2,119.2z"/>
	<path class="st22" d="M293.6,99.3c-0.2-0.6-0.4-1.2-0.6-1.8c-0.2,0.1-0.4,0.2-0.6,0.3C292.9,98.3,293.2,98.8,293.6,99.3L293.6,99.3
		L293.6,99.3z"/>
	<path class="st12" d="M260.3,127.5c2.8-4.1,5.7-8.1,8.5-12.1c-3.5,1.8-7.4,3.1-10.2,5.5c-3.1,2.7-5.2,6.4-7.8,9.7
		c0.8,0.5,1.7,1,2.6,1.4C255.7,130.5,258,129,260.3,127.5L260.3,127.5z"/>
	<path class="st2" d="M328.5,161.8c-4.9-9.6-5.6-21-14.3-29.1l-2.9,1.1c4.6,9.8,9.3,19.5,13.9,29.2
		C326.4,162.6,327.5,162.2,328.5,161.8z"/>
	<path class="st1" d="M310.4,148.8c0.6,0.8,1.1,1.6,1.7,2.5c0-1.4,0-2.9,0-6C311,147.5,310.7,148.1,310.4,148.8L310.4,148.8z"/>
	<path class="st23" d="M331.1,136c0.2,0.1,0.4,0.3,0.6,0.3s0.4-0.2,0.5-0.4C331.8,136,331.5,136,331.1,136z"/>
	<path class="st2" d="M340.9,91.2c-4.2,1.8-8.4,3.4-12.6,5.3c-3.9,1.8-4.2,12-0.3,15.2c1.5,1.2,3.4,1.9,5.1,2.9
		c2.6-1.4,5.3-2.7,7.8-4.2c3.7-2.4,7.3-5,11-7.5c-1.8-2.2-3.4-4.6-5.4-6.6C344.8,94.4,342.8,92.8,340.9,91.2L340.9,91.2z"/>
	<path class="st24" d="M324.8,231c-1.3,0.4-2.6,0.7-3.9,1.1C322.2,231.8,323.5,231.4,324.8,231z"/>
	<path class="st18" d="M242.5,133.5c0.2,0.4,0.3,1,0.6,1.1s0.8-0.3,1.2-0.4c-0.2-0.4-0.3-1-0.6-1.1
		C243.5,133,242.9,133.4,242.5,133.5L242.5,133.5z"/>
	<path class="st1" d="M549.8,186.1c-8.7-3.6-17.4-6.9-26-10.7c-7.9-3.6-7.3-5.3-4.4-12.7c5.8-14.6,15.6-28.7,10.6-45.5
		c-0.7-2.2-1.8-4.2-2.8-6.3c-1.7,3.3-3.2,6.6-5,9.9c-5.2,9.8-17.4,13.9-28.8,9.7c-0.1,0.9,0,1.9-0.2,2.8c-0.3,1-0.8,2-1.2,3
		c0.8,2.6,1.7,5.1,2.5,7.6c-0.7,0.2-1.4,0.4-2.1,0.6c-1.1-1.7-2.2-3.4-3.2-4.9c-1.8,1.4-3.2,2.5-4.6,3.6c-0.1,1.4-0.1,2.7-0.2,4.1
		c0.7,1.9,2.3,3.9,2,5.7c-0.6,3.7-2.3,7.3-3.5,10.9c-0.2,2.7,0,7.7-0.8,7.8c-5.1,1-2.2,3.7-2.2,5.8c7.6,0.4,15.3,0.7,22.9,1l0.3,0.7
		c-4.8,1.1-9.5,2.3-15.7,3.8c4.5,1.3,7.6,2.1,10.7,3c2.8-0.4,5.8-1.5,8.5-1c2.9,0.5,5.3,3.3,8.2,3.7c9.1,1.3,18.3,2,27.4,2.9
		c2.1,0.5,4.2,1,6.3,1.5C548.9,190.7,549.3,188.4,549.8,186.1L549.8,186.1z"/>
	<path class="st2" d="M524.1,68.1c-0.1-0.8-0.2-1.7-0.2-2.5c0-1.8,0-3.7,0-5.5c-0.3-9.1-7.2-17.9-16.4-20.4
		c-2.6-0.7-5.3-1.3-7.9-1.9c-3.7,3.5-7.3,7-11,10.5c2.4,1.2,4.9,2.4,7.1,3.4c-0.8,3.3-1.6,6.6-2.3,9.9c0.9,0.5,1.8,1,2.7,1.5
		c2.1-2.9,4.1-5.8,6.2-8.7c0.4,0.3,0.8,0.7,1.2,1.1c-0.8,4.8-1.5,9.6-2.3,14.4c0.8,1.5,1.5,3.1,2.4,4.9c-2.6-0.3-4.8-0.5-6.9-0.7
		c0,0.9,0,1.8,0,2.7c2,3.7,4,7.4,6.1,11.1l0,0c7.1-1.3,14.5-2,16.7-10.4c0.4-1.5,4.2-2.3,6.4-3.5c0-0.4-0.1-0.9-0.2-1.3
		C525.1,71,524.6,69.6,524.1,68.1z"/>
	<path class="st1" d="M502.7,87.7c-2-3.7-4-7.4-6.1-11.1c-3.6,0-7.1,0-10.7,0c-0.2,1.5-0.4,3-0.6,4.5c-0.7-0.4-1.4-0.8-2.2-1.1
		c0.9-1.1,1.9-2.3,2.8-3.4c-2.3-3.8-4.6-7.6-6.9-11.4c-0.8,2.9-1.6,5.9-2.5,8.8c-2.4,2.7-4.8,5.5-7.2,8.2c-0.6,2.7-1.1,5.4-1.7,8.1
		c2.6,2.3,5.2,4.6,7.8,6.9c0.3-0.1,0.7-0.1,1-0.1c0.6-0.4,1.1-0.9,1.7-1.4l0.1-0.1c4.7-0.1,9.3-0.2,14-0.3c0.9,0,1.7,0,2.6,0.1
		c5.2-0.8,10.3-1.6,15.4-2.4c1.5-1.8,3-3.5,4.4-5.3c0.8,0.7,1.5,1.4,2.2,2.2c-2.2,1.5-4.4,3-6.7,4.6c-1.6,0.9-3.1,1.8-4.7,2.7
		c1.1,2,2.3,4.1,3.4,6.1c0.9-0.6,1.9-1.1,2.8-1.6c0.6-0.5,1.1-1,1.6-1.5l-0.1,0.1c0.8-0.4,1.7-0.8,2.5-1.2c1.2-0.3,2.3-0.5,3.5-0.8
		c1-0.3,2-0.7,3-1c1-5.1,2-10.2,2.9-15.2c-1.8,0.3-3.5,0.5-5.3,0.8c-0.3-0.5-0.6-1-0.9-1.6c2.6-1.6,5.2-3.2,7.9-4.8
		c-0.4-0.9-0.8-1.9-1.3-2.8c-2.2,1.2-6,2-6.4,3.5C517.2,85.7,509.8,86.4,502.7,87.7c-0.6,0.7-1.2,1.4-1.8,2.1l-0.5-0.4
		C501.1,88.8,501.9,88.3,502.7,87.7L502.7,87.7z M495.6,86c0.4-0.2,0.9-0.5,1.2-0.4c0.3,0.1,0.4,0.7,0.6,1.1
		c-0.4,0.2-0.9,0.5-1.2,0.4S495.8,86.3,495.6,86L495.6,86z M492.4,82.7c0.2,0.4,0.6,0.8,0.5,1.1c-0.1,0.3-0.9,0.6-1.2,0.5
		c-0.3-0.1-0.6-0.8-0.5-1.1C491.3,83,492,82.9,492.4,82.7L492.4,82.7z"/>
	<path class="st5" d="M519.4,98.1c-1.2,0.3-2.3,0.5-3.5,0.8c-0.8,0.4-1.7,0.8-2.5,1.2l0.1-0.1c-0.6,0.5-1.1,1-1.6,1.5
		c-0.9,0.6-1.9,1.1-2.8,1.7c-2.5,1.1-4.8,2.5-7.5,3.1c-8.4,2-16.9,3.7-25.4,5.6c-2.7,7.7-5.6,15.4-8,23.1c-1,3.3-4.9,7.1,1,10.7
		c2-3.5,3.6-7.1,6-10.3c1.3-1.7,3.9-2.6,6-3.9c3.1-4.6,6.1-9.4,9.2-14c4.1-1.7,8.2-3.3,12.3-5c6.9-3.3,13.9-6.5,20.8-9.9
		c-0.5-1.3-0.9-2.5-1.4-3.8C521.2,98.6,520.3,98.3,519.4,98.1L519.4,98.1z"/>
	<path class="st2" d="M523.5,102.9c-6.9,3.3-13.9,6.5-20.8,9.8c1.2,0.8,2.4,1.6,4.5,3c-3.9,2.5-7.2,4.6-10.5,6.7
		c-1.1,2.7-2.2,5.4-3.2,8.1c11.5,4.2,23.7,0.1,28.8-9.7c1.7-3.3,3.3-6.6,5-9.9c-0.1-0.8-0.3-1.6-0.4-2.4c-0.4-0.6-0.8-1.2-1.2-1.7
		C524.9,105.4,524.2,104.1,523.5,102.9L523.5,102.9z"/>
	<path class="st20" d="M479.9,177.4c0-2.1-2.9-4.8,2.2-5.8c0.9-0.2,0.6-5.1,0.8-7.8c-2-0.4-3.9-0.9-5.9-1.3
		c-0.1,7.2-0.5,14.5-0.3,21.7c0.1,2.9,1.1,5.7,1.8,8.6h-0.1c0.5,0.5,0.9,1,1.4,1.4c0.5,2.3,1,4.6,1.4,6.9c0.1,1.8,0.2,3.6,0.4,5.5
		c0.9,2.3,1.9,4.7,2.9,7c3.8,0.8,7.5,1.5,11.3,2.2c0.3-0.6,0.6-1.3,0.9-1.9c-3.5-1.6-7.1-3.2-10.6-4.8c-0.1-0.6-0.1-1.2-0.2-1.9
		c3.1-0.7,6.2-1.3,9.2-2c-4.5-7.1-9.1-14.2-13.4-21.4C480.5,182,480.4,179.6,479.9,177.4L479.9,177.4z"/>
	<path class="st5" d="M492.8,29.3C493,24,495.1,18,493,13.6C488.4,4,473,3,464.4,10.7c6-0.2,6,4.6,7.8,7.8c1.8,0,3.7,0.4,5.2-0.1
		c5.7-2,8-0.7,8.8,5C486.7,25.6,490.6,27.4,492.8,29.3L492.8,29.3z"/>
	<path class="st6" d="M472.2,18.5c-1.8-3.2-1.8-8-7.8-7.8c-1.3,3.8-2.7,7.6-4,11.4c0.4,1,1.6,2.4,1.2,3.1c-3.6,7,3.4,11.5,5.4,17
		c0.7,1.9,6.8,2.1,10.5,3.1c0.2-0.2,0.5-0.4,0.7-0.6c-0.6-2.4-1.1-4.8-1.6-7.2c-2.5,0.9-5,1.7-7.9,2.7c-0.5-3.6-0.9-7.1-1.4-10.6
		c0.1-2.4-0.3-4.9,0.5-7c0.4-1.1,2.8-1.7,4.3-2.5L472.2,18.5L472.2,18.5z"/>
	<path class="st5" d="M476.5,74.1c0.8-2.9,1.6-5.9,2.5-8.8c3.2-5.7,6.4-11.4,9.6-17c3.7-3.5,7.3-7,11-10.5c-1-2.6-1-6.2-5.9-5
		l-0.1-0.2c-2.5,3.7-5,7.4-7.5,11.1c-1.6,1.9-3.2,3.7-4.8,5.6c-0.7-0.4-1.4-0.8-2.1-1.3c-0.6,0.9-1.3,1.8-1.9,2.8
		c-1.6,6-3.1,12-4.7,18C473.9,70.5,475.2,72.3,476.5,74.1L476.5,74.1z"/>
	<path class="st7" d="M549.8,186.1c-0.4,2.3-0.8,4.6-1.2,6.8c-0.6,1.8-1.2,3.6-1.7,5.5c1.9,3.8,3.7,7.6,5.6,11.4
		c1.1-0.2,2.1-0.5,3.2-0.8c-0.8-6.9-1.7-13.7-2.5-20.6v0.1c-0.6-0.8-1.1-1.6-1.7-2.4C550.8,186.2,550.3,186.1,549.8,186.1
		L549.8,186.1z"/>
	<path class="st17" d="M472.3,18.5c0,0.5-0.1,1.1-0.1,1.6c2.3,0.9,4.6,1.8,7.2,2.8c0.8,2.1,1.8,4.8,2.8,7.5c0.5-0.5,1-1.1,1.5-1.6
		c1.3,0.7,2.6,1.4,3.9,2.1c2,0.5,4,1.1,5.9,1.6l0.1,0.2c-0.3-1.1-0.5-2.2-0.8-3.4c-2.3-1.9-6.2-3.7-6.5-5.8c-0.8-5.7-3.2-7.1-8.8-5
		C476,19,474,18.5,472.3,18.5L472.3,18.5z"/>
	<path class="st2" d="M526.5,76.4c-2.6,1.6-5.2,3.2-7.9,4.8c0.3,0.5,0.6,1,0.9,1.6c1.8-0.3,3.5-0.5,5.3-0.8
		C525.3,80.1,525.9,78.3,526.5,76.4z"/>
	<path class="st3" d="M523.9,60c0,1.8,0,3.7,0,5.5C523.9,63.7,523.9,61.9,523.9,60z"/>
	<path class="st3" d="M524.1,68.1c0.5,1.5,0.9,2.9,1.4,4.4C525,71,524.6,69.6,524.1,68.1z"/>
	<path class="st25" d="M519.6,97.6c0.9,0.3,1.8,0.6,2.8,0.9c0.1-0.6,0.3-1.1,0.4-1.7C521.7,97,520.6,97.3,519.6,97.6z"/>
	<path class="st3" d="M525.6,106.7c0.4,0.6,0.8,1.2,1.2,1.7C526.4,107.8,526,107.3,525.6,106.7z"/>
	<path class="st26" d="M479.8,194.2c-0.5-0.5-0.9-1-1.4-1.4C478.8,193.3,479.3,193.7,479.8,194.2z"/>
	<path class="st18" d="M553,188.5c0.8,6.9,1.7,13.7,2.5,20.6c-1.1,0.2-2.1,0.5-3.2,0.8c-1.9-3.8-3.7-7.6-5.6-11.4
		c-1.9,2.1-3.8,4.3-5.7,6.4c1.2,2.9,2.7,5.7,3.3,8.6c0.5,2.6-0.1,5.4-0.2,8.1c2.1,0.4,4.2,0.8,8.2,1.5c1.6-6,3.1-11.9,4.7-17.8
		c-0.3-4.6-0.7-9.2-1-13.8C555.1,190.5,554,189.5,553,188.5L553,188.5z"/>
	<path class="st22" d="M495,205.3c-3.1,0.7-6.2,1.3-9.2,2c0.1,0.6,0.1,1.2,0.2,1.9c3.5,1.6,7.1,3.2,10.6,4.8
		c-0.3,0.6-0.6,1.3-0.9,1.9c-3.8-0.8-7.5-1.5-11.3-2.2c0.6,2.7,1.1,5.4,1.7,8c0.6,1,1.1,1.9,1.7,2.9c0.1,3.4,0.2,6.7,0.4,10.1
		c3.9,0.5,7.7,1,11.6,1.6c6.4-0.5,12.8-1.1,19.2-1.6c0.1-1.4,0.2-2.7,0.3-4.1c-1-3.3-2-6.5-3-9.8C509.1,215.6,502.1,210.4,495,205.3
		L495,205.3z"/>
	<path class="st27" d="M500.3,235.5c-3.8-0.5-7.7-1-11.5-1.6c-2.5,0.9-5.1,1.9-7.6,2.9c-0.7,1.3-1.4,2.6-2.1,4
		c0.3,0.3,0.5,0.5,0.7,0.8c3.2,0.1,6.4,0.2,9.6,0.3c1.1-0.4,2.1-0.9,3.2-1.4C495.1,238.9,497.7,237.2,500.3,235.5L500.3,235.5z"/>
	<path class="st8" d="M495,205.3c7,5.1,14.1,10.2,21.1,15.4c-0.5-1.4-0.9-2.8-1.4-4.2c-5.3-6.6-10.6-13.2-15.9-19.9
		c0.3-0.3,0.6-0.6,0.9-0.8c5,2.7,10.1,5.4,15.1,8.2c2,0.9,4.1,1.8,6.1,2.7c-1.5-2-2.7-4.3-4.6-5.9c-2.2-2-5-3.4-7.6-5.1
		c-2.1-1.1-4.2-2.2-6.3-3.2c3.4-4.8-3.5-4-4.3-6.5c-3.1-0.9-6.2-1.7-10.7-3c6.2-1.5,10.9-2.6,15.7-3.8l-0.3-0.7
		c-7.6-0.4-15.3-0.7-22.9-1c0.5,2.2,0.6,4.6,1.7,6.5C485.9,191.1,490.5,198.2,495,205.3L495,205.3z"/>
	<path class="st17" d="M517.4,239.8c0-1-0.1-1.9-0.1-2.9c0.3-0.8,0.6-1.6,0.9-2.4c-6.4,0.5-12.8,1.1-19.2,1.6
		c-2.6,1.7-5.2,3.4-7.8,5.1c7.2,0,14.3,0.1,21.5,0.1c1.4,0,2.8-0.1,4.2-0.1C517.1,240.7,517.3,240.2,517.4,239.8L517.4,239.8z"/>
	<path class="st12" d="M508.7,195.6c2.6,1.7,5.3,3.1,7.6,5.1c1.9,1.6,3.1,3.9,4.6,5.9l0.1,0.1c1.5,1.3,3.1,2.6,4.6,3.9
		c4.3,4,7.9,2.7,11.2-1.1c1.4-1.6,2.9-3.1,4.3-4.7c1.9-2.1,3.8-4.3,5.7-6.4c0.6-1.8,1.2-3.6,1.7-5.5c-2.1-0.5-4.2-1-6.3-1.5
		c-1.2,0.9-2.3,2.6-3.5,2.6C528.7,194.8,518.7,195.1,508.7,195.6L508.7,195.6z"/>
	<path class="st28" d="M514.8,204c-5-2.7-10.1-5.4-15.1-8.2c-0.3,0.3-0.6,0.6-0.9,0.8c5.3,6.6,10.6,13.2,15.9,19.9
		C514.7,212.3,514.7,208.1,514.8,204L514.8,204z"/>
	<path class="st10" d="M525.5,210.7c-1.5-1.3-3.1-2.6-4.6-3.9C522.5,208,524,209.4,525.5,210.7z"/>
	<path class="st28" d="M467.6,90.4c0.6-2.7,1.1-5.4,1.7-8.1c-6.3-1.6-10.6-4.6-9.4-11.3c-1.4,2.3-2.8,4.6-4.2,6.9
		c1.5,6.4-1.8,10.7-7.3,13.9c-0.7-0.9-1.3-1.8-2-2.7c-2.7,5.7-0.9,9.3,6,10.3c5.7,0.8,11.4,1.3,17.1,2c-0.1-1.3-0.2-2.7-0.2-4l0,0
		C465,95.8,464.8,93.4,467.6,90.4L467.6,90.4z"/>
	<path class="st25" d="M475.9,111.7c8.4-1.8,16.8-3.5,25-5.5c2.6-0.6,4.9-2,7.4-3c-1.1-1.9-2.3-4-3.4-5.9c-1.4,0.1-2.8,0.1-4.2,0.2
		c-4,0.5-8.1,1-12.1,1.5c-3.5,0.8-7.1,4-10.6-0.1l-0.1-0.1c-0.6-0.5-1.1-1-1.7-1.6c-0.4,0-0.7,0.1-1,0.1c-2.1,0-4,0-6-0.1l0,0
		c0.5,1.4,1,2.6,1.5,4C472.3,104.8,474.1,108.3,475.9,111.7L475.9,111.7z"/>
	<path class="st29" d="M446.4,89.1c0.6,0.9,1.3,1.8,2,2.7c5.6-3.2,8.8-7.5,7.3-13.9c-2.1-3.8-0.4-10.5-8.4-9.6
		c-2.8,0.3-6.3,1.6-7.7,3.5c-2.3,3.2-3.7,7.5,2.2,9.4C446,82.7,447.5,85.2,446.4,89.1L446.4,89.1z"/>
	<path class="st8" d="M493.4,130.5c1.1-2.7,2.2-5.4,3.2-8.1c-2.1-1.5-4.2-3.1-6.3-4.6c-3.1,4.6-6.1,9.3-9.2,13.9
		c-2,4.7-3.9,9.5-5.9,14.2c3,0.4,6,0.9,9,1.4c0.1-1.4,0.1-2.7,0.2-4.1c-0.5-5,1.9-7.4,7.5-6.9c0.4-1,0.9-1.9,1.2-3
		C493.4,132.4,493.4,131.4,493.4,130.5L493.4,130.5z"/>
	<path class="st27" d="M459.9,71c-1.2,6.8,3.1,9.7,9.4,11.3c2.4-2.7,4.8-5.5,7.2-8.2c-1.3-1.8-2.6-3.6-3.9-5.4
		c-1.7-1.4-3.3-2.8-5-4.2C465,66.6,462.5,68.8,459.9,71L459.9,71z"/>
	<path class="st12" d="M484.3,147.2c-3-0.4-6-0.9-9-1.4c0.6,5.5,1.1,11.1,1.7,16.6c2,0.4,3.9,0.9,5.9,1.3c1.2-3.6,2.9-7.2,3.5-10.9
		C486.7,151.1,485.1,149.1,484.3,147.2L484.3,147.2z"/>
	<path class="st23" d="M467.6,64.5c1.6,1.4,3.3,2.8,5,4.2c1.6-6,3.1-12,4.7-18C474,55.3,470.8,59.9,467.6,64.5z"/>
	<path class="st11" d="M479.1,47.9c0.7,0.4,1.4,0.8,2.1,1.3c-1-1.5-2-2.9-2.9-4.4c-0.2,0.2-0.5,0.4-0.7,0.6
		C478.1,46.2,478.6,47.1,479.1,47.9L479.1,47.9z"/>
	<path class="st8" d="M470.3,100.9c-0.5-1.4-1-2.7-1.5-4.1c0.1,1.3,0.2,2.7,0.2,4C469.4,100.9,469.9,100.9,470.3,100.9z"/>
	<path class="st20" d="M508.7,195.6c10-0.5,20-0.9,30-1.5c1.2-0.1,2.4-1.7,3.5-2.6c-9.1-0.9-18.3-1.6-27.4-2.9
		c-2.9-0.4-5.3-3.2-8.2-3.7c-2.7-0.5-5.7,0.6-8.5,1c0.8,2.5,7.8,1.6,4.3,6.5C504.5,193.5,506.6,194.5,508.7,195.6L508.7,195.6z"/>
	<path class="st12" d="M492,136.2c-5.7-0.6-8,1.9-7.5,6.9c1.4-1.1,2.9-2.2,4.6-3.6c1,1.5,2.1,3.2,3.2,4.9c0.7-0.2,1.4-0.4,2.1-0.6
		C493.7,141.3,492.9,138.8,492,136.2L492,136.2z"/>
	<path class="st12" d="M489.1,49.2c-3.1,5.5-6.2,11-9.3,16.4c2.2,3.7,4.4,7.3,6.7,11l0,0c3.5,0,6.9,0,10.3,0c0-0.9,0-1.7,0-2.6
		c1.5-1.4,2.9-2.7,4.4-4.1c0.8-4.6,1.5-9.3,2.2-13.9c-0.4-0.3-0.8-0.7-1.2-1.1c-2,2.8-4,5.6-6,8.4c-0.9-0.5-1.7-1-2.6-1.4
		c0.8-3.1,1.5-6.3,2.2-9.6C493.8,51.5,491.4,50.4,489.1,49.2L489.1,49.2z"/>
	<path class="st3" d="M501.1,69.7c-1.5,1.4-3,2.8-4.5,4.2c2.2,0.2,4.3,0.4,6.9,0.7C502.6,72.8,501.9,71.2,501.1,69.7L501.1,69.7z"/>
	<path class="st21" d="M489,99c4.1-0.5,8.2-1,12.3-1.5c-2.2-0.6-4.4-1.2-6.5-1.8c-0.9,0-1.7,0-2.6-0.1c-4.7,0.1-9.3,0.2-14,0.3
		l-0.1,0.1c0,1,0,1.9,0.1,2.9l0.1,0.1C481.8,98.9,485.4,98.9,489,99z"/>
	<path class="st8" d="M494.8,95.7c2.2,0.6,4.4,1.2,6.5,1.8c1.4-0.1,2.9-0.1,4.3-0.2c1.6-0.9,3.1-1.8,4.7-2.7c0-0.5,0-0.9,0-1.4
		C505.1,94,500,94.8,494.8,95.7z"/>
	<path class="st8" d="M469.3,97.3c2.1,0,4.1,0,6.1,0.1c-2.6-2.3-5.2-4.6-7.8-6.9C464.7,93.4,464.9,95.8,469.3,97.3L469.3,97.3z"/>
	<path class="st12" d="M511.1,92.7c0,0.5,0,0.9,0,1.4c2.2-1.5,4.4-3,6.7-4.6c-0.8-0.7-1.5-1.4-2.2-2.2C514,89.2,512.5,91,511.1,92.7
		z"/>
	<path class="st22" d="M485.9,76.6c-0.9,1.1-1.9,2.3-2.8,3.4c0.7,0.4,1.4,0.8,2.2,1.1C485.5,79.7,485.7,78.1,485.9,76.6L485.9,76.6
		L485.9,76.6z"/>
	<path class="st22" d="M495.6,86c0.2,0.4,0.3,1,0.6,1.1s0.8-0.3,1.2-0.4c-0.2-0.4-0.3-1-0.6-1.1C496.5,85.4,496,85.8,495.6,86
		L495.6,86z"/>
	<path class="st22" d="M492.4,82.7c-0.4,0.2-1.1,0.2-1.2,0.5s0.2,1,0.5,1.1s1.1-0.2,1.2-0.5C493,83.5,492.6,83.1,492.4,82.7
		L492.4,82.7z"/>
	<path class="st22" d="M502.7,87.7c-0.8,0.6-1.6,1.1-2.3,1.7l0.5,0.4C501.4,89.1,502.1,88.4,502.7,87.7L502.7,87.7L502.7,87.7z"/>
	<path class="st10" d="M477.6,98.9c0-1,0-1.9-0.1-2.9c-0.6,0.4-1.1,0.9-1.7,1.4C476.4,97.9,477,98.4,477.6,98.9z"/>
	<path class="st12" d="M490.4,117.7c2.1,1.5,4.2,3.1,6.3,4.6c3.3-2.1,6.6-4.2,10.5-6.7c-2.1-1.4-3.3-2.2-4.5-3
		C498.6,114.3,494.5,116,490.4,117.7z"/>
	<path class="st18" d="M487.6,30.9c-1.3-0.7-2.6-1.4-3.9-2.1c-0.5,0.5-1,1.1-1.5,1.6c-1-2.7-2-5.4-2.8-7.5c-2.6-1-4.9-1.9-7.2-2.8
		c-1.5,0.8-3.9,1.4-4.3,2.5c-0.8,2.2-0.4,4.6-0.5,7c3.7,1.4,7.3,2.8,11,4.3c1,0,2-0.1,3-0.1l3.1-0.1
		C485.5,32.8,486.5,31.8,487.6,30.9L487.6,30.9z"/>
	<path class="st15" d="M478.4,33.9c-3.7-1.4-7.3-2.8-11-4.3c0.5,3.5,0.9,7.1,1.4,10.6c2.8-1,5.4-1.8,7.9-2.7
		C477.2,36.4,477.8,35.2,478.4,33.9L478.4,33.9z"/>
	<path class="st17" d="M478.4,33.9c-0.6,1.2-1.1,2.4-1.7,3.7c0.6,2.4,1.1,4.8,1.6,7.2c1,1.5,2,2.9,2.9,4.4c1.6-1.9,3.2-3.7,4.8-5.6
		c-8-0.7-4.2-5-3.2-8.5c-0.1-0.4-0.1-0.8-0.2-1.3h-0.7h-0.7C480.3,33.9,479.3,33.9,478.4,33.9L478.4,33.9z"/>
	<path class="st15" d="M482.8,35.1c-1,3.5-4.8,7.8,3.2,8.5c2.5-3.7,5-7.4,7.5-11.1c-2-0.5-4-1.1-5.9-1.6c-1.1,1-2.2,1.9-3.2,2.9l0,0
		C483.9,34.2,483.4,34.7,482.8,35.1L482.8,35.1z"/>
	<path class="st8" d="M489,99c-3.6,0-7.2-0.1-10.8-0.1C481.8,103.1,485.4,99.7,489,99z"/>
	<path class="st30" d="M481.3,33.8h0.7h0.7c0.6,0,1.1,0,1.7-0.1l0,0C483.4,33.8,482.4,33.8,481.3,33.8L481.3,33.8z"/>
	<path class="st27" d="M484.4,33.8c-0.6,0-1.1,0-1.7,0.1c0.1,0.4,0.1,0.8,0.2,1.3C483.4,34.7,483.9,34.2,484.4,33.8L484.4,33.8z"/>
	<path class="st31" d="M113.8,72.1c-5.1-1.8-10.1-3.7-15.2-5.6c-5.7-2.7-11.4-5.5-17.2-8.2c-7.5-1.8-14.9-3.7-22.4-5.5
		c-1,3.5-2,7-3,10.6C63.5,68,70.5,74,78.7,76.6c9.2,3,16.2,7.6,22.9,13.6c5.7,5.2,11.8,10.1,17.7,15.1c0.4-0.4,0.8-0.8,1.2-1.1
		c-1.3-3.8-2.6-7.7-3.9-11.6c0.5-0.1,1.1-0.2,1.6-0.4c3.1,5.1,6.2,10.2,9.3,15.4c1,1.8,2,3.7,3,5.6l0,0c0.5,0.5,1,0.9,1.5,1.4l0,0
		c1.3-0.2,2.7-0.5,4.5-0.8c-1.6-2.5-2.8-4.4-4.1-6.4c0.4-0.3,0.8-0.6,1.2-0.9c2.1,1.6,4.1,3.2,6.4,5c0.9-2.3,1.6-4.2,2.3-6.1
		c-0.7,0.9-1.4,1.8-2.1,2.7c3.8,2.2,7.7,4.3,11.5,6.5c4.1-0.4,8.6,0,12.3-1.3c4.8-1.7,9.1-4.7,13.6-7.1c-3-2.3-6-4.7-9-7
		c-2.5-0.2-5.2,0-7.6-0.6c-3.6-0.9-7.1-2-10.5-3.5c-3.3-1.4-6.7-2.9-9.5-5.1c-3.8-2.9-7.1-6.5-10.6-9.8
		C125,77.7,119.4,74.9,113.8,72.1L113.8,72.1z"/>
	<path class="st32" d="M56.1,63.5c1-3.5,2-7,3-10.6c-2.6-1.4-5.2-2.9-7.8-4.3c-5.1-3.3-10.2-6.6-15.2-9.9c-1.8-0.1-3.7-0.2-5.6-0.3
		c0.5,3.1,0.9,5.7,1.3,8.3c2.8,5.2,2,12.6,10.6,14.2c4.1,0.9,8.1,1.8,12.2,2.7C55.1,63.6,55.6,63.5,56.1,63.5L56.1,63.5z"/>
	<path class="st33" d="M31.8,46.8c-0.4-2.6-0.8-5.3-1.3-8.4c1.9,0.1,3.8,0.2,5.6,0.3c-0.3-3.4-0.5-6.7-0.9-10.7
		C25.8,34.6,25.3,38.7,31.8,46.8L31.8,46.8z"/>
	<path class="st34" d="M92.7,99.2c4.8,2.7,9.7,5.4,14.5,8.1c1.2,0.2,2.4,0.3,3.6,0.5c0-1.1,0.4-2.7-0.2-3.3c-4.9-4.8-10-9.4-15.1-14
		c-7.9-7.1-17.4-10.9-28.7-10.6c2.5,2.2,5,4.4,7.4,6.7C80.5,90.8,86.6,95,92.7,99.2L92.7,99.2z"/>
	<path class="st35" d="M152.1,224.1c-2.6,0.9-5.2,1.7-7.8,2.6c-1.2,0.6-2.5,1.1-3.7,1.6c1.2,1,2.5,1.9,3.7,2.9c2.6,0,5.2,0,7.8,0
		V224.1L152.1,224.1z"/>
	<path class="st36" d="M192.5,44c-0.2-1.8-0.5-3.5-0.7-5.3c-6.7-1.5-4.6-5.5-3-9.1c2.6-5.8,4-11.2-1.1-16.7c-5-5.3-11.7-5.1-18-4.3
		c-3.2,0.4-8.6,0.9-7.9,6.4v0.1c1.6-0.4,3.2-0.9,5.5-1.5c-0.9,10.9,8.8,7.1,12.6,8.3c3.1,5.5,5.4,9.8,8.1,14.7
		c-3.8,1.5-7.9,3.2-11.9,4.8c-0.5,1-1,2-1.5,3C180.7,44.2,186.6,44.1,192.5,44L192.5,44z"/>
	<path class="st37" d="M174.7,44.4c0.5-1,1-2,1.5-3c-0.5-1.3-1-2.7-1.5-4.1c-3.7,1-7.3,1.9-12.4,3.3c0-5.1-1.3-9.6,0.3-12.8
		c2.2-4.2,1-6.8-1.6-9.8l-0.1-0.1c-0.9,0.7-1.7,1.3-2.6,2c-0.1,4.5-0.5,9-0.1,13.5c0.5,5.4,2.4,10.2,10.1,10.1
		c0.8,0,1.6,1.6,2.4,2.5C172.1,45.4,173.4,44.9,174.7,44.4L174.7,44.4z"/>
	<path class="st37" d="M161.9,15.1V15c-0.3,1-0.6,1.9-0.9,2.9l0.1,0.1C161.4,17,161.6,16,161.9,15.1L161.9,15.1z"/>
	<path class="st34" d="M167.8,208.1c0.4-3.4,0.8-6.9,1.1-10.4c0-2.3-0.1-4.6-0.1-6.9c-0.1-1.8-0.3-3.6-0.2-5.4
		c0.5-6.2,2.6-12.2-2.5-18.4c-1.9-2.2,1.5-8.1,2.5-12.4c1.1-4.5,2.1-9.1,3.2-13.6c-2.3-0.5-4.6-1.4-6.9-1.4
		c-5.9,0.2-11.7,0.8-17.5,1.3c0,8.6,0,17.2,9.5,22c-0.6,1.9-1.2,3.8-1.9,5.6c0.8,1.1,1.7,2.2,3.3,4.4c-4.5-0.4-9.3-4.4-9.5,4.1
		c-3.9-4.3-6.5-7.1-9-9.9c-0.4,3.2-0.8,6.4-1.2,9.5c4.9,3.6,9.8,7.3,14.8,10.9c-0.6,0.8-1.2,1.6-1.8,2.4c-2.8-0.4-5.5-0.9-7.9-1.3
		c1.3,5.3,2.5,10.3,3.6,15c2.7,0.7,5.3,1.4,7.9,2C159.3,206.7,163.6,207.4,167.8,208.1L167.8,208.1z"/>
	<path class="st38" d="M147.4,141.1c5.8-0.5,11.7-1.1,17.5-1.3c2.3-0.1,4.6,0.9,6.9,1.4c1.5-4.6,3-9.3,4.5-13.9
		c-4.5-0.5-9-0.9-13.6-1.4c0,0.5,0,1-0.1,1.4c0.7,0.6,1.4,1.2,2.1,1.8c-0.3,0.2-0.6,0.4-1,0.6c-0.4-0.8-0.8-1.6-1.2-2.4
		c-4.4-1.1-8.8-2.2-14.4-3.7c3.2-1.6,5-2.5,6.9-3.4c-1-1.8-2.1-3.6-3.1-5.3c-3.8-2.2-7.7-4.3-11.5-6.5c0.7-0.9,1.4-1.8,2.1-2.7
		c-0.7,1.9-1.4,3.8-2.3,6.1c-2.3-1.8-4.4-3.4-6.4-5c-0.4,0.3-0.8,0.6-1.2,0.9c1.2,1.9,2.5,3.9,4.1,6.4c-1.8,0.3-3.1,0.6-4.5,0.8
		c0,1-0.1,2-0.1,3c1.1,4.8,2.1,9.7,3.2,14.5c0.9,3.4,2,6.8,2.9,10.2C140.1,135,144.2,140.7,147.4,141.1L147.4,141.1z"/>
	<path class="st34" d="M162.7,125.8c4.5,0.5,9.1,0.9,13.6,1.4c2-1.9,4.1-3.7,6.1-5.6c0.6-3.2,1.1-6.3,1.7-9.5
		c-2.1-1.9-4.2-3.8-6.3-5.6c-4.5,2.4-8.8,5.4-13.6,7.1c-3.8,1.3-8.2,0.9-12.3,1.3c1,1.8,2.1,3.6,3.1,5.3
		C157.6,122,160.1,123.9,162.7,125.8L162.7,125.8z"/>
	<path class="st39" d="M167.8,208.1c-4.2-0.7-8.5-1.5-12.8-2.2c-0.1,0.4-0.2,0.9-0.4,1.3c-0.9,5.6-1.7,11.2-2.5,16.8
		c0,2.4,0,4.8,0,7.1c-2.6,0-5.2,0-7.8,0c7.6,2.5,14.9,6.8,23.6,3.6c-0.2-2-0.5-3.9-0.7-5.9c0.1,3.4-0.8,5.1-5.3,3.8
		c-6.5-1.8-7.3-3.9-3.9-12.9v-0.1c0.6-1.3,1.3-2.7,1.9-4c0.9-1.7,1.9-3.5,2.8-5.2c1,1.9,2,3.9,3,5.9
		C166.4,213.7,167.1,210.9,167.8,208.1L167.8,208.1z"/>
	<path class="st34" d="M200.4,92.6c4.1-13,6.4-26-1.2-38.7c-1.5,2.6-0.2,6.1-4.4,8c-2.3,1-3.6,4.4-4.7,6.9
		c-2.3,5.7-3.8,11.7-6.2,17.3c-2,4.6-5.5,4.8-9.1,1.1c-0.5-0.5-1-0.9-1.5-1.4l0,0c-0.5-0.5-1-0.9-1.5-1.4l0,0c0-0.5,0-0.9,0-1.4
		c0-0.9,0-1.8,0-2.7c-5.1-0.4-4.5-3.9-4.6-7c-0.5,0.9-1.1,1.9-1.6,2.8c-2.2,6.9,3,10.6,7.8,14.5c1.8,1.5,2.9,3.7,4.3,5.6
		c3.5,2.6,6.9,5.2,10.4,7.8C194.7,102.5,198.7,98.5,200.4,92.6L200.4,92.6z"/>
	<path class="st36" d="M188,103.9c-3.5-2.6-6.9-5.2-10.4-7.8c-3.9-0.7-7.8-1.3-11.7-2c1,1.8,1.9,3.5,2.9,5.3c3,2.3,6,4.7,9,7
		c2.1,1.9,4.2,3.8,6.3,5.6C185.4,109.4,186.7,106.6,188,103.9L188,103.9z"/>
	<path class="st40" d="M174.8,87.1c3.6,3.8,7.1,3.6,9.1-1.1c2.4-5.7,3.9-11.6,6.2-17.3c1-2.5,2.4-5.9,4.7-6.9c4.2-1.9,3-5.3,4.4-8
		c2.6-6-3.4-7.1-6.7-9.8c-5.9,0.1-11.9,0.3-17.8,0.4c-1.3,0.5-2.7,1-4,1.6c-1.7,1.8-3.3,3.5-5,5.2c0,5.5-0.1,11.1-0.1,16.6
		c1.1-0.9,2.2-1.8,4.1-3.3c0.3,2.8,0.4,4.3,0.5,5.8c4.8,0.6,8.5,5,6.4,7.9c-1.8-0.6-3.7-1.2-6.6-2.1c0.8,2,1.2,3,1.7,4
		c0,0.9,0,1.8,0,2.7c0,0.5,0,0.9,0,1.4l0,0c0.5,0.5,1,0.9,1.5,1.4l0,0C173.8,86.2,174.3,86.6,174.8,87.1L174.8,87.1z M171.4,59.7
		c0.7,0.6,1.4,0.9,1.5,1.3c0.1,0.5-0.3,1.1-0.5,1.7c-0.6-0.4-1.5-0.6-1.8-1.2C170.3,61.3,171,60.6,171.4,59.7L171.4,59.7z"/>
	<path class="st41" d="M132.1,117.7c0-1,0.1-2,0.1-3l0,0c-0.5-0.5-1-0.9-1.5-1.4l0,0c-1-1.8-2-3.7-3-5.6c-3.1-5.1-6.2-10.2-9.3-15.4
		c-0.5,0.1-1.1,0.2-1.6,0.4c1.3,3.8,2.6,7.7,3.9,11.6c-0.4,0.4-0.8,0.8-1.2,1.1c-5.9-5-12-9.9-17.7-15.1c-6.6-6-13.7-10.6-22.9-13.6
		C70.6,74,63.7,68,56.2,63.5c-0.5,0-1,0.1-1.5,0.2c1.1,3.2,2.2,6.3,3.3,9.5c3,2.3,6,4.6,9,6.8c11.3-0.3,20.7,3.4,28.6,10.5
		c5.1,4.6,10.2,9.2,15.1,14c0.6,0.6,0.2,2.2,0.2,3.3c0,0.4,0.1,0.8,0.1,1.2c4.7,2.3,9.4,4.6,14.1,6.9
		C127.4,116.5,129.8,117.1,132.1,117.7L132.1,117.7z"/>
	<path class="st32" d="M165.7,216.4c-1-1.9-2-3.9-3-5.9c-0.9,1.7-1.9,3.5-2.8,5.2c-0.6,1.3-1.3,2.7-1.9,4v0.1c0.9,2.6,1.9,5.2,3,8.3
		c2.5-1.9,4-3,5.4-4.1C166.1,221.5,165.9,219,165.7,216.4L165.7,216.4z"/>
	<path class="st33" d="M166.3,224.1c-1.5,1.1-2.9,2.2-5.4,4.1c-1.1-3.1-2-5.7-3-8.3c-3.4,9.1-2.6,11.1,3.9,12.9
		c4.5,1.2,5.4-0.5,5.3-3.8C166.9,227.3,166.6,225.7,166.3,224.1L166.3,224.1z"/>
	<path class="st42" d="M168.8,99.4l-2.9-5.3c-0.6-0.5-1.2-1-1.8-1.5c-1-0.5-2-0.9-3.1-1.4l0,0c-6.4-2.1-14.4-1.5-18.2-8.3
		c-2-0.7-4-1.7-6.1-2.1c-2-0.4-4.1-0.2-6.1-0.3c3.5,3.3,6.8,6.8,10.6,9.8c2.8,2.1,6.2,3.6,9.5,5.1c3.4,1.4,6.9,2.6,10.5,3.5
		C163.6,99.4,166.2,99.3,168.8,99.4L168.8,99.4z"/>
	<path class="st42" d="M127.7,107.8c1,1.8,2,3.7,3,5.6C129.7,111.5,128.7,109.6,127.7,107.8z"/>
	<path class="st42" d="M130.7,113.3c0.5,0.5,1,0.9,1.5,1.4C131.7,114.3,131.2,113.8,130.7,113.3z"/>
	<path class="st38" d="M141.3,195c0.1,2.3,0.2,4.6,0.3,6.9c0.8,1.9,1.5,3.8,2.1,5.4c3.9,0,7.4,0,10.9,0c0.2-0.4,0.3-0.9,0.4-1.3
		c-2.6-0.7-5.2-1.3-7.9-2c-1.1-4.7-2.3-9.7-3.6-15c2.4,0.4,5.2,0.9,7.9,1.3c0.6-0.8,1.2-1.6,1.8-2.4c-4.9-3.6-9.8-7.3-14.8-10.9
		C139.5,182.9,140.4,189,141.3,195L141.3,195z"/>
	<path class="st39" d="M160.8,55.7c-9.7-2.7-12.2-1.6-15.9,7c-0.3,0.6-0.2,1.6-0.7,1.9c-8,4.9-3.1,9.3,0.7,13.7
		c4.4-1.7,8.8-3.4,13.2-5C155.7,67,154.4,60.8,160.8,55.7L160.8,55.7z"/>
	<path class="st38" d="M160.8,55.7c-6.4,5.1-5.1,11.3-2.8,17.6c0,1.8,0,3.7,0,5.5c2.5-0.9,5-1.9,7.5-2.8c0.5-0.9,1.1-1.9,1.6-2.8
		c0-0.9,0-1.8,0-2.6c-0.5-0.9-1-1.8-1.5-2.7c0-5.5,0.1-11.1,0.1-16.6C164.1,52.7,162.4,54.2,160.8,55.7L160.8,55.7z"/>
	<path class="st34" d="M158,78.8c0-1.8,0-3.7,0-5.5c-4.4,1.7-8.8,3.4-13.2,5c-0.6,1.6-1.3,3.1-2,4.7c3.9,6.8,11.8,6.2,18.2,8.3
		c-2-3.2-4.1-6.5-6.1-9.7c-0.2-0.6-0.4-1.2-0.6-1.8c0.2,0.6,0.4,1.2,0.5,1.8C156,80.6,157,79.7,158,78.8L158,78.8z"/>
	<path class="st43" d="M161.9,15.1c-0.3,0.9-0.5,1.9-0.8,2.8c2.6,3,3.8,5.6,1.6,9.8c-1.7,3.2-0.3,7.6-0.3,12.8
		c5.1-1.3,8.7-2.3,12.4-3.3c0.5,1.5,1,2.8,1.5,4.1c4-1.6,8.1-3.2,11.9-4.8c-2.7-4.9-5.1-9.1-8.1-14.7c-3.9-1.3-13.5,2.6-12.6-8.3
		C165.1,14.2,163.5,14.6,161.9,15.1z"/>
	<path class="st42" d="M141.4,150.7c-0.5,5.6-1.1,11.1-1.6,16.7c2.5,2.8,5,5.6,9,9.9c0.2-8.4,5-4.5,9.5-4.1
		c-1.7-2.2-2.5-3.3-3.3-4.4C150.5,162.7,145.9,156.7,141.4,150.7L141.4,150.7z"/>
	<path class="st40" d="M141.4,150.7c4.5,6,9.1,12,13.6,18c0.6-1.8,1.2-3.7,1.9-5.6c-9.5-4.8-9.5-13.4-9.5-22
		c-3.2-0.4-7.3-6.1-9.1,1.3C139.3,145.1,140.4,147.9,141.4,150.7L141.4,150.7z"/>
	<path class="st44" d="M162.7,125.8c-2.5-1.9-5.1-3.8-7.6-5.7c-1.8,0.9-3.6,1.8-6.9,3.4c5.6,1.4,10,2.6,14.4,3.7l0,0
		C162.6,126.7,162.7,126.2,162.7,125.8L162.7,125.8z"/>
	<path class="st45" d="M162.6,127.2c0.4,0.8,0.8,1.6,1.2,2.4c0.3-0.2,0.6-0.4,1-0.6C164,128.4,163.3,127.8,162.6,127.2L162.6,127.2
		L162.6,127.2z"/>
	<path class="st33" d="M158,219.8c0.6-1.3,1.3-2.7,1.9-4C159.2,217.2,158.6,218.5,158,219.8z"/>
	<path class="st46" d="M158,78.8c-1,0.9-2,1.8-3,2.8l0,0c2,3.2,4.1,6.5,6.1,9.7l0,0c1,0.5,2,0.9,3.1,1.4c0.6,0.5,1.2,1,1.8,1.5
		c3.9,0.7,7.8,1.3,11.7,2c-1.4-1.9-2.5-4.1-4.3-5.6c-4.8-4-9.9-7.6-7.8-14.5C163,76.9,160.5,77.9,158,78.8L158,78.8z"/>
	<path class="st47" d="M167.1,70.6c0,0.9,0,1.8,0,2.6c0.1,3.1-0.5,6.6,4.6,7c-0.4-1-0.8-2-1.7-4c2.9,0.9,4.8,1.5,6.6,2.1
		c2.1-2.9-1.6-7.2-6.4-7.9C169.2,70.4,168.2,70.5,167.1,70.6L167.1,70.6z"/>
	<path class="st48" d="M167.1,70.6c1-0.1,2.1-0.1,3.1-0.2c-0.1-1.5-0.3-3.1-0.5-5.8c-1.9,1.5-3,2.4-4.1,3.3
		C166.1,68.7,166.6,69.6,167.1,70.6L167.1,70.6z"/>
	<path class="st48" d="M171.4,59.7c-0.4,0.8-1,1.6-0.8,1.9c0.3,0.5,1.2,0.8,1.8,1.2c0.2-0.6,0.6-1.2,0.5-1.7
		C172.7,60.6,172,60.3,171.4,59.7L171.4,59.7z"/>
	<path class="st49" d="M155,81.6c-0.2-0.6-0.4-1.2-0.5-1.8C154.6,80.4,154.8,81,155,81.6L155,81.6L155,81.6z"/>
</g>
<g id="Capa_4">
</g>
</svg>
