<?xml version="1.0" encoding="utf-8"?>
<!-- Generator: Adobe Illustrator 27.0.0, SVG Export Plug-In . SVG Version: 6.00 Build 0)  -->
<svg version="1.1" xmlns="http://www.w3.org/2000/svg" xmlns:xlink="http://www.w3.org/1999/xlink" x="0px" y="0px"
	 viewBox="0 0 593.2 245.8" style="enable-background:new 0 0 593.2 245.8;" xml:space="preserve">
<style type="text/css">
	.st0{fill:#E83B44;}
	.st1{fill:#CDD7EE;stroke:#CDD7EE;stroke-miterlimit:10;enable-background:new    ;}
	.st2{fill:#DBE0F2;stroke:#DBE0F2;stroke-miterlimit:10;enable-background:new    ;}
	.st3{fill:#D4DDF1;stroke:#D4DDF1;stroke-miterlimit:10;enable-background:new    ;}
	.st4{fill:#EDEFF9;stroke:#EDEFF9;stroke-miterlimit:10;enable-background:new    ;}
	.st5{fill:#E6EAF7;stroke:#E6EAF7;stroke-miterlimit:10;enable-background:new    ;}
	.st6{fill:#353947;stroke:#353947;stroke-miterlimit:10;enable-background:new    ;}
	.st7{fill:#AC8884;stroke:#AD8884;stroke-miterlimit:10;enable-background:new    ;}
	.st8{fill:#B9C6E5;enable-background:new    ;}
	.st9{fill:#3D4253;stroke:#3D4253;stroke-miterlimit:10;enable-background:new    ;}
	.st10{fill:#917573;stroke:#917573;stroke-miterlimit:10;enable-background:new    ;}
	.st11{fill:#917573;enable-background:new    ;}
	.st12{fill:#C8A8A4;enable-background:new    ;}
	.st13{fill:#85A0C7;stroke:#85A0C7;stroke-miterlimit:10;enable-background:new    ;}
	.st14{fill:#C3D1EC;enable-background:new    ;}
	.st15{fill:#BAC6E5;stroke:#B9C6E5;stroke-miterlimit:10;enable-background:new    ;}
	.st16{fill:#212836;stroke:#212836;stroke-miterlimit:10;enable-background:new    ;}
	.st17{fill:#DBE0F2;enable-background:new    ;}
	.st18{fill:#353947;enable-background:new    ;}
	.st19{fill:#EDEFF9;stroke:#EDEFF9;stroke-miterlimit:10;}
	.st20{fill:#212836;stroke:#212836;stroke-miterlimit:10;}
	.st21{fill:#AD8884;}
	.st22{fill:#3D4253;stroke:#3D4253;stroke-miterlimit:10;}
	.st23{fill:#CFBDBE;}
	.st24{fill:#DBE0F2;stroke:#DBE0F2;stroke-miterlimit:10;}
	.st25{fill:#353947;stroke:#353947;stroke-miterlimit:10;}
	.st26{fill:#DBE0F2;}
	.st27{fill:#77B9E6;}
	.st28{fill:#3D4253;}
	.st29{fill:#E6EAF7;stroke:#E6EAF7;stroke-miterlimit:10;}
	.st30{fill:#C3D1EC;stroke:#C3D1EC;stroke-miterlimit:10;enable-background:new    ;}
	.st31{fill:#C8A8A4;stroke:#C8A8A4;stroke-miterlimit:10;enable-background:new    ;}
	.st32{fill:#777778;stroke:#777778;stroke-miterlimit:10;enable-background:new    ;}
	.st33{fill:#CDD7EE;stroke:#CDD7EE;stroke-miterlimit:10;}
	.st34{fill:#9D939E;}
	.st35{opacity:0.79;fill:#AD9FA9;stroke:#AD9FA9;stroke-miterlimit:10;enable-background:new    ;}
	.st36{opacity:0.79;fill:#AC8884;stroke:#AD8884;stroke-miterlimit:10;enable-background:new    ;}
	.st37{opacity:0.79;fill:#5AA1D6;enable-background:new    ;}
	.st38{fill:#AD9FA9;}
	.st39{fill:#D4DDF1;stroke:#D4DDF1;stroke-miterlimit:10;}
	.st40{fill:#C3D1EC;stroke:#C3D1EC;stroke-miterlimit:10;}
	.st41{fill:#D4DDF1;}
	.st42{fill:#C3D1EC;}
	.st43{fill:#85A0C7;enable-background:new    ;}
	.st44{fill:#9E939E;stroke:#9D939E;stroke-miterlimit:10;enable-background:new    ;}
	.st45{fill:#72B7E6;enable-background:new    ;}
	.st46{opacity:0.79;fill:#777778;enable-background:new    ;}
	.st47{fill:#CDD7EE;enable-background:new    ;}
	.st48{fill:#CFBDBF;stroke:#CFBDBE;stroke-miterlimit:10;enable-background:new    ;}
	.st49{opacity:0.79;fill:#C3D1EC;enable-background:new    ;}
	.st50{fill:#E6EAF7;enable-background:new    ;}
	.st51{fill:#D4DDF1;enable-background:new    ;}
	.st52{fill:#AD8884;enable-background:new    ;}
	.st53{fill:#9D939E;enable-background:new    ;}
	.st54{fill:#AD9FA9;stroke:#AD9FA9;stroke-miterlimit:10;enable-background:new    ;}
	.st55{fill:#3D4253;enable-background:new    ;}
	.st56{fill:#AC8884;stroke:#AD8884;stroke-miterlimit:10;}
	.st57{fill:#917573;stroke:#917573;stroke-miterlimit:10;}
	.st58{fill:#353947;}
	.st59{fill:#AD9FA9;stroke:#AD9FA9;stroke-miterlimit:10;}
	.st60{fill:#BAC6E5;stroke:#B9C6E5;stroke-miterlimit:10;}
	.st61{fill:#9E939E;stroke:#9D939E;stroke-miterlimit:10;}
	.st62{fill:#CDD7EE;}
	.st63{fill:#EDEFF9;}
	.st64{fill:#E6EAF7;}
</style>
<g id="Capa_2">
	<polygon class="st0" points="593.2,62.7 0,82.7 0,157.3 593.2,177.3 	"/>
</g>
<g id="Capa_1">
	<path class="st1" d="M475.8,191.4c-0.4-6.1-0.9-12.2-1.3-18.4c0,5.6,0,11.1,0,18.5c-1.5-3.3-2.2-4.8-2.8-6.2
		c-1.8,4-3.6,8.1-5.4,12.1c-0.6,2-1.2,4.1-1.9,6.1l0,0c-0.5,2.4-1,4.9-1.5,7.3c1.8,2.5,3.7,4.9,5.9,7.9c-2.4,1-4.3,1.7-6.1,2.5
		c-1.6-2.2-3-4.1-4.4-6.1c-2.2-1.9-6.5-2.5-4-7.2c-1.5,0.5-3,1-4.5,1.5c0.9,3.3,2,6.6,2.7,9.9c0.5,2.7,0.5,5.5,0.7,8.2
		c0,1.4,0,2.8-0.1,4.1c2.9,0.2,5.8,0.1,8.6,0.6c3.2,0.6,6.3,1.7,9.5,2.6c0.8-0.4,1.6-1.1,2.5-1.2c6.7-0.2,8.7-3.5,6.8-10.3
		c-1.2-4.5-1.5-9.2-2.3-13.9c-0.4-2.6-0.8-5.1-1.2-7.7C476.7,198.4,476.2,194.9,475.8,191.4L475.8,191.4z"/>
	<path class="st2" d="M338.1,208.2c0.4-3.5,0.8-7.1,1.2-10.6c-3.4,1.9-6.8,3.8-12,6.7c6.4-11.4-0.7-17.6-4.9-24.7
		c-2.8-1-5.7-2-8.5-3c0,0.5-0.1,1.1-0.1,1.6c0.1,1.5,0.2,3,0.3,4.5c1.5,9.5,3,19,4.5,28.5c0.1,0.6-0.3,1.4-0.5,2
		c-0.9,3.3-1.9,6.7-2.8,10c3,1.5,6.1,3.1,9.1,4.6c0.7,0.1,1.4,0.3,2.1,0.4c2.3,0,4.5,0,6.8-0.1c1.5-5.2,3-10.4,4.5-15.6
		C337.8,211.1,337.9,209.6,338.1,208.2L338.1,208.2z"/>
	<path class="st3" d="M343.7,164.4c0.1-0.5,0.2-1,0.3-1.5c-0.6-7-1.8-14.1-1.7-21.1c0.1-5.6,1.8-11.2,2.7-16.8
		c1.4-2.5,2.9-5,4.3-7.5c-0.1-0.4-0.1-0.9,0-1.3c0-1-0.1-2-0.1-3c-0.1-0.5-0.1-1-0.2-1.5c-0.7-0.8-1.4-1.5-2.1-2.3
		c-1.5,1.8-2.6,4.2-4.5,5.4c-2.6,1.7-5.6,2.6-8.4,3.9c0.1,0.5,0.3,1,0.4,1.5c1.7,0.4,3.4,0.7,5.4,1.2c-8,4.7-10.2,4.6-16.4-1.8
		c-3.7-3.8-6.9-8.2-10.5-12.2c-3.4-3.7-7-7.2-10.5-10.8c1,3.5,1.1,7.6,3,10.3c4.2,6,9.3,11.3,14,16.9c2.9,2.4,6.5,4.4,8.7,7.5
		c2.5,3.4,10.3,4.4,5.1,12c-5.4,7.9-0.6,17.9,8.6,18.5c-0.4,0.9-0.7,1.9-1.1,2.8C341.8,164.4,342.7,164.4,343.7,164.4L343.7,164.4z"
		/>
	<path class="st3" d="M482,98.2c9.6-11.1,11.7-23.9,8.2-38.1c-3.2,5.7-5.7,11.9-9.7,16.8c-2.7,3.3-7.4,4.9-11.3,7.2
		c-1.3-2.6-2.4-5.3-3.8-7.8c-0.5-1-1.6-1.7-2.5-2.5c-5.8-1.1-11.6-2.2-17.5-3.3c-2.1,2.1-4.3,4.2-6.4,6.3c-0.6,1.5-1.1,3.1-1.7,4.6
		c1.1,2.8,2.3,5.5,3.2,8.4c0.5,1.6,0.6,3.4,0.9,5.2c-0.3,2.6-0.6,5.2-0.9,7.8c3.2-0.1,6.4-0.4,9.6-0.2c2.9,0.2,5.8,1,8.7,1.5
		c2.4-1,4.8-2.1,7.2-3.1C470.6,95.6,476,95.2,482,98.2L482,98.2z M445.4,95.2c-0.1-1.1-0.3-2.2-0.4-3.3c8.2-3.5,16.8-0.4,25.2-1.8
		c0.1,0.9,0.2,1.8,0.2,2.7C462,93.7,453.7,94.5,445.4,95.2z"/>
	<path class="st4" d="M462.9,73.7c0.8,0.8,1.9,1.5,2.4,2.5c1.4,2.5,2.6,5.2,3.8,7.8c3.8-2.3,8.6-3.9,11.3-7.2
		c4-4.9,6.5-11.2,9.7-16.8c-1.1-4.2-1.9-8.6-3.3-12.7c-2.2-6.8-6.7-11.2-13.2-13.2c-7.3-0.6-9.5,6.3-13.5,10.4
		c1,1.6,2.8,3.2,2.8,4.8c0.1,2.6-1,5.2-1.6,7.9c4.8-0.5,7.2,1.1,5.4,6.5c-2.3,0.4-4.5,0.7-6.7,1.1C461,67.7,461.9,70.7,462.9,73.7
		L462.9,73.7z M468.3,55.1c-0.2-0.4-0.6-0.9-0.4-1.2s0.7-0.4,1.1-0.6c0.2,0.4,0.6,0.9,0.4,1.2C469.3,54.8,468.7,54.9,468.3,55.1
		L468.3,55.1z"/>
	<path class="st5" d="M466.7,101.3c-2.5,1-4.9,2.1-7.4,3.1c-0.5,0.1-1,0.3-1.5,0.4c-0.6,0.3-1.1,0.6-1.8,0.9l0.1-0.1
		c-0.8,0.5-1.5,1-2.4,1.4c-4.1,3.4-8.4,7-12.5,10.5c0.2,1.6,0.4,3.2,0.8,5.9c7-2.3,14.1-4.7,22-7.3c1.4,2.9,2.7,5.6,4,8.1
		c3.9,1.4,7.7,2.8,11.7,4.3c1.5-6.6,3.2-13.3,4.7-19.9c0-1.4,0-2.8,0-4.4c-0.6-0.7-1.3-1.4-2-2.1
		C477.2,102.1,471.9,101.7,466.7,101.3L466.7,101.3z"/>
	<path class="st6" d="M468.6,24.2C473.6,9,467-2,453.5,0.3c-3.6,0.6-6.6,4.8-9.9,7.4c1.8,0,3.6,0,5,0c1.1,2.5,2,4.7,2.9,6.9
		c1.7,0.4,3.6,0.5,5.1,1.2c1.9,0.9,3.5,2.3,5.2,3.6C464.2,21,466.4,22.6,468.6,24.2L468.6,24.2z"/>
	<path class="st7" d="M468.6,24.2c-2.2-1.6-4.4-3.3-6.7-4.9c-1.7,2.7-3.4,5.4-5.2,8.5c-2.4-1.6-5.2-3.5-8.4-5.6
		c1.1-2.7,2.2-5.2,3.2-7.6c-0.9-2.2-1.9-4.4-2.9-6.9c-1.4,0-3.2,0-5,0c-0.2,0.9-0.4,1.8-0.6,2.7c1.2,2.6,2.9,5.1,3.5,7.9
		c1.1,5.4,1.5,10.9,2.1,16.3l0,0c3.1-1.2,6.2-2.4,7.9-3c1.4,2.9,2.4,5.2,3.5,7.5c2.9-3.4,5.8-6.8,8.7-10.2
		C468.7,27.3,468.7,25.7,468.6,24.2L468.6,24.2z"/>
	<path class="st8" d="M462.9,73.7c-1-3-1.9-6-2.9-9c0.4-2.5,0.9-5,1.3-7.5c0.6-2.6,1.6-5.3,1.6-7.9c-0.1-1.6-1.8-3.2-2.8-4.8
		c-2.4,3.2-4.7,6.4-7.1,9.6c-2.2,4.6-4.4,9.2-6.6,13.8c-0.3,0.8-0.6,1.7-0.9,2.5C451.2,71.5,457.1,72.6,462.9,73.7L462.9,73.7z"/>
	<path class="st9" d="M457.2,104.4c0.5-0.1,1-0.3,1.5-0.4c-2.9-0.5-5.8-1.3-8.7-1.5c-3.2-0.2-6.4,0.1-9.6,0.2
		c1.5,7.1-2.9,11.2-7.1,15.5c-2.5,2.5-6.3,5.1-3,9.8c0.4,0.1,0.8,0.1,1.2,0c3.3-3.7,6.6-7.3,9.8-10.9c4-3.4,8.1-6.9,12.1-10.4
		c0.8-0.5,1.5-1,2.3-1.4l-0.1,0.1C456.1,104.9,456.7,104.7,457.2,104.4L457.2,104.4z"/>
	<path class="st5" d="M431.5,127.9c-0.4,0.1-0.8,0.1-1.2,0c-2.9,2.2-5.7,4.3-8.6,6.5c-0.4,0.4-0.8,0.8-1.2,1.2l-0.4,0.5
		c-0.4,0.3-0.7,0.7-1.1,1l-0.3,0.2c-0.4,0.4-0.9,0.8-1.3,1.2c0,0-0.1,0.2-0.1,0.1c-0.4,0.5-0.9,0.9-1.3,1.4l-0.1,0.1
		c1.4,7.4,4.9,9.7,11.4,7.5c0-1,0-2,0-3.1c-2.1,0.4-4.2,0.8-8.2,1.7c2.1-2.6,3-3.6,3.9-4.7c2.9-2,5.7-4,8.6-6c2.4-1.5,4.8-3,7.1-4.5
		c-0.5-1-0.9-2-1.4-3C435.3,128,433.4,127.9,431.5,127.9L431.5,127.9z"/>
	<path class="st10" d="M448.7,34.5c-0.7-5.4-1.1-10.9-2.1-16.3c-0.6-2.8-2.3-5.3-3.5-7.9c-2.8,9.1-1.2,17.8,3.1,25.9
		c0.5,0.9,2.6,0.7,3.6,1.5c2.2,1.7,4.1,3.8,6.2,5.7c1.3-1.5,2.7-2.9,4-4.4c-1.1-2.3-2.1-4.6-3.5-7.5
		C454.9,32.2,451.8,33.3,448.7,34.5c-0.2,0.1-0.4,0.2-0.6,0.3C448.3,34.8,448.5,34.6,448.7,34.5L448.7,34.5z"/>
	<path class="st11" d="M437.3,81.3c0.6-1.5,1.1-3.1,1.7-4.6c-1.8-2.4-4-4.7-5.2-7.4c-1.2-2.7-1.5-5.9-2.2-8.9
		c-8.7,5.9-9,8.9-1.2,14.6C432.7,77.1,435,79.2,437.3,81.3L437.3,81.3z"/>
	<path class="st12" d="M431.6,60.4c0.7,3,1,6.2,2.2,8.9c1.2,2.7,3.4,4.9,5.2,7.4c2.1-2.1,4.3-4.2,6.4-6.3c0.3-0.8,0.6-1.7,0.9-2.5
		C443.5,60.9,436.5,62.9,431.6,60.4L431.6,60.4z"/>
	<path class="st13" d="M437.3,81.3c-2.3-2.1-4.6-4.2-6.9-6.3c0,0.2-0.1,0.5-0.1,0.7c-0.5,9.4,3.2,15.7,11.1,19.1
		c-0.3-1.7-0.3-3.5-0.9-5.2C439.6,86.8,438.4,84.1,437.3,81.3L437.3,81.3z"/>
	<path class="st9" d="M460.1,39c-1.3,1.5-2.7,2.9-4,4.4C455,47,454,50.5,453,54.1c2.4-3.2,4.7-6.4,7.1-9.6c4.1-4.1,6.2-11,13.5-10.4
		c0-3.3-0.4-6.3-4.8-5.3C465.9,32.2,463,35.6,460.1,39L460.1,39z"/>
	<path class="st9" d="M465.9,100.8c5.7,0.3,11.2,0.7,16.9,1c0.3-1.2,0.7-2.5,0.9-3.7C477.1,95.2,471.1,95.6,465.9,100.8z"/>
	<path class="st14" d="M420.5,135.6c0.4-0.4,0.8-0.8,1.2-1.2C421.3,134.8,420.9,135.2,420.5,135.6z"/>
	<path class="st4" d="M383.8,61.8c-0.6-4-1.2-8-1.7-12c-6.8-1.8-11.7-1.1-9.1,9.4c-5.6-7.5-14.9-12-10.6-23.4l-0.4-0.1
		c-4.2,0.7-8.4,1.4-12.6,2.1c-5.3,0.8-8.5,3.7-8.3,7.6c0.9,0,1.8-0.1,2.7-0.1c0.5,0,1-0.1,1.5-0.1c0.9-0.9,1.7-1.8,2.5-2.7
		c1.1,1.4,2.1,2.8,3.2,4.2l0.2,0.2c0.4,0.4,0.8,0.8,1.2,1.2l0.1,0.3c0.4,1.6,0.8,3.2,1.2,4.8c-2.4,1.7-4.9,3.4-7.3,5
		c-1.1,0.2-2.2,0.4-3.2,0.5c-0.8-0.4-1.5-0.8-2.3-1.2c-0.4,0-0.9-0.1-1.3-0.2c-2.4,1.5-4.8,3-7.2,4.5c-2.4,0.5-4.7,1-7.1,1.5
		c0,1.1-0.1,2.2-0.1,3.3c1.5,0.2,3,0.2,4.5,0.6c3.8,1.1,7.6,2.5,11.4,3.7c1.2,0.5,2.4,1.1,3.5,1.6c-0.2,0.4-0.3,0.8-0.5,1.2
		c-1-0.4-2.1-0.9-3.1-1.4c-5.3,0.1-10.7,0.2-16,0.3c6.6,7,13.2,13.9,19.7,21.1c2.6,2.8,4.6,6.1,6.9,9.2c4-3.2,3.8-6.5-0.9-10.1
		c3.1-0.9,5.3-1.5,7.5-2.1c2.8,1,5.6,1.9,8.4,2.9c1.6-8.9,4.8-16.9,11.5-22.9c0-0.9,0-1.8,0-2.7c-1.2-0.4-2.3-0.7-3.5-1.1
		c0-0.5,0-1,0-1.4c2.1-0.7,4.1-1.3,6.2-2C381.8,62.8,382.8,62.3,383.8,61.8L383.8,61.8z M338.3,78.4c0.2-0.7,0.4-1.4,0.7-2.1
		c22,2.8,24.2,3.8,24.6,9.8c-4.1-1-8.4-1.9-12.6-3.2C346.7,81.6,342.5,79.9,338.3,78.4L338.3,78.4z"/>
	<path class="st5" d="M325.1,66.5c0-1.1,0.1-2.2,0.1-3.3c2.9-3.8,5.7-7.7,8.6-11.5c0.4,0.2,0.8,0.3,1.1,0.5
		c-0.9,3.2-1.8,6.3-2.6,9.5c2.4-1.5,4.8-3,7.2-4.5c0.5-4,1-7.9,1.5-11.9c-0.2-3.9,3-6.7,8.3-7.6c4.2-0.7,8.4-1.4,12.6-2.1
		c-2.7-0.9-5.5-1.8-8.2-2.7c-3.8-0.3-7.6-0.7-11.4-1c-13.9,2.4-24.9,9.9-34.1,20.8c-0.4,0.5-0.8,1-1.1,1.5c-0.1,0.5-0.2,1-0.3,1.6
		c-0.4,0.5-0.8,1-1.1,1.4c-0.6,1-1.2,2-1.8,2.9c-0.4,1.6-0.7,3.1-1.1,4.7c0,0.5,0,0.9,0.2,1.4c0.8,1.9,1.7,3.8,2.5,5.8
		c0.1,1.1,0.1,2.2,0.2,3.4c0.4,0,0.9,0,1.3,0.1c1.4,0,2.8-0.1,4.1-0.1c1.4-3,2.9-6,4.3-9C318.5,66.4,321.8,66.4,325.1,66.5
		L325.1,66.5z"/>
	<path class="st15" d="M319.5,123.7c-4.7-5.6-9.8-10.9-14-16.9c-1.9-2.7-2.1-6.8-3-10.3c-1-4-2-8.1-3-12.1c1-2.5,2-5,3-7.5
		c-1.9,0-3.8,0.1-5.7,0.1c-0.9,0.5-1.9,1-2.8,1.4c-1,2-2,3.9-3,5.9c0.7,3.8,1.3,7.5,2,11.2c-5.1,0.3-3,4.3-3.3,7.1
		c5.6-2.1,8.6,1.4,11.2,5.8c2.8,3,5.6,6.1,8.4,9.1c2,3,4,6,5.9,9c1.7,2.5,3.4,5,6.1,8.8C320.5,130.4,320,127,319.5,123.7
		L319.5,123.7z"/>
	<path class="st2" d="M378.1,70.6c-6.7,6-10,14-11.5,22.9c1,0.4,2.6,1.5,2.9,1.1c1.9-2.2,3.6-4.6,5.1-6.5c2.3,3.1,4.2,5.7,6.2,8.3
		c1.5-4,3-8.1,4.5-12.1c0.4-0.5,0.8-1,1.2-1.6h-0.1c0.4-1.5,0.8-3.1,1.2-4.6c0-0.5,0.1-0.9,0.2-1.3c0-4,0-8,0-12
		c-2.3,0.5-4.5,1-6.8,1.5c-0.1,0.5,0,0.9,0.2,1.3c1.7,0.8,3.4,1.7,5,2.5c-0.2,0.7-0.5,1.3-0.7,2c-1.6-0.5-3.1-1-4.7-1.6
		C379.8,70.7,379,70.6,378.1,70.6z M380.7,81.2c0.5,0.8,0.9,1.6,1.4,2.4c-1.5,0.7-2.9,1.4-4.4,2.1c-0.3-0.7-0.6-1.3-0.9-1.9
		C378.1,82.9,379.4,82.1,380.7,81.2L380.7,81.2z"/>
	<path class="st16" d="M369,25.5c3.8-9,3-13.3-3.8-19.6c-5,3.9-4.5,9.5-4.3,15c1.9,1.6,3.7,3.2,5.6,4.8
		C367.3,25.7,368.1,25.6,369,25.5z"/>
	<path class="st5" d="M362.3,35.8c-4.3,11.3,4.9,15.9,10.6,23.4c-2.6-10.5,2.3-11.2,9.1-9.4c-2.3-2-4.6-4-6.9-6
		c-3,5.8-6.2,2.5-9.6,0.3c1.4-1.8,2.7-3.4,4-5C367.1,38,364.7,36.9,362.3,35.8L362.3,35.8z"/>
	<path class="st10" d="M342.2,31.9c3.8,0.3,7.6,0.7,11.4,1c0.5-1.4,1.1-2.8,1.6-4.2c-1.6-0.1-3.5,0.3-4.8-0.5
		c-2-1.1-3.6-3.1-5.4-4.6c1.6-1.9,3.2-3.8,4.9-5.7c0.6-0.7,1.5-1.1,2.2-1.6c-1.8-1.5-3.5-2.9-5.3-4.4c0.2-1.1,0.4-2.2,0.6-3.2
		c-0.4-0.3-0.7-0.6-1-0.9C340.6,15,341.3,23.4,342.2,31.9L342.2,31.9z"/>
	<path class="st9" d="M355.3,28.7c-0.5,1.4-1.1,2.8-1.6,4.2c2.7,0.9,5.5,1.8,8.2,2.7l0.4,0.1c2.4,1.1,4.8,2.2,7.2,3.2
		c1.6,0.5,3.1,1,4.7,1.5c-1.8-3.4-3.6-6.8-6.2-11.7c-0.1,0.3,0.4-1.5,1-3.3c-0.9,0.1-1.7,0.2-2.6,0.3c0.5,4.1-0.8,5.5-4.4,3.2
		C359.7,28.9,357.5,28.8,355.3,28.7L355.3,28.7z"/>
	<path class="st6" d="M346.9,12c1.8,1.5,3.5,2.9,5.3,4.4c0.5-0.1,0.9-0.2,1.4-0.3c5.9-4,4.4,4,7.2,4.9c-0.2-5.6-0.7-11.3,4.3-15.2
		c-2.9-0.9-5.8-1.8-8.6-2.7c0.8,1.6,1.6,3.2,3,6.2C354.9,10.3,350.9,11.1,346.9,12L346.9,12z"/>
	<path class="st16" d="M345.9,11.8c4-0.9,8-1.7,12.7-2.7c-1.5-3-2.2-4.6-3-6.2c-2.9,0.9-5.8,1.9-8.7,2.8c-0.1,0.9-0.2,1.9-0.3,2.8
		C346.2,9.5,346.1,10.6,345.9,11.8z"/>
	<path class="st2" d="M302.4,76.9c-1,2.5-2,5-3,7.5c1.6,1.3,3.3,2.6,5,3.9c0.9-4.6,1.6-8.7,2.4-12.8c-0.4-0.1-0.9-0.1-1.3-0.1
		C304.4,75.9,303.4,76.4,302.4,76.9L302.4,76.9z"/>
	<path class="st4" d="M374.3,41.7c-1.6-0.5-3.1-1-4.7-1.5c-1.3,1.6-2.6,3.2-4,5c3.4,2.2,6.6,5.5,9.6-0.3
		C374.9,43.9,374.6,42.8,374.3,41.7L374.3,41.7z"/>
	<path class="st14" d="M381,66.4c2.3-0.5,4.6-1,6.8-1.5c-1.4-1-2.7-2.1-4-3.1c-1,0.5-2,1-3,1.6C380.8,64.4,380.9,65.4,381,66.4
		L381,66.4z"/>
	<path class="st17" d="M305.3,72.1c-0.8-1.9-1.7-3.8-2.5-5.8C303.6,68.2,304.4,70.1,305.3,72.1z"/>
	<path class="st17" d="M302.6,64.9c0.4-1.6,0.7-3.1,1.1-4.7C303.3,61.8,303,63.3,302.6,64.9z"/>
	<path class="st18" d="M347.5,8.7c0.1-0.9,0.2-1.9,0.3-2.8c-0.4,0.7-0.9,1.3-1.4,2C346.8,8.2,347.2,8.5,347.5,8.7L347.5,8.7z"/>
	<path class="st17" d="M305.5,57.3c0.4-0.5,0.8-1,1.1-1.4C306.3,56.3,305.9,56.8,305.5,57.3z"/>
	<path class="st17" d="M306.9,54.2c0.4-0.5,0.8-1,1.1-1.5C307.7,53.3,307.3,53.8,306.9,54.2z"/>
	<path class="st19" d="M220.8,42.5c-12.1-1.5-24.2-3.9-36.4-4.1c-4-0.1-8.1,5.4-12.1,8.3c3.3,7.2,12.8,14.1,15.5,10.8
		c-0.7-1.5-1.4-3.2-2.1-4.7c2.2-1.2,3.9-2.3,6-3.5c1.8,3.1,3.6,6.2,6.1,10.6c-3.8,0.3-6,0.4-8.2,0.6c0,0.5-0.1,1-0.1,1.5l0,0
		c1.1,0.4,2.4,0.5,3.2,1.2c7.9,6.3,15.9,12.6,23.6,19.2c2,1.7,3,4.5,5.3,8.2c-8.8-5.1-15.8-9-22.6-13.2c-1.6-1-2.5-3.2-3.7-4.8l0,0
		c-1.9-2.5-3.8-4.9-5.7-7.4c-1.9,0.6-3.9,1.1-5.8,1.7c1.8,4.7,3.8,9.4,5.4,14.2c2.6,7.7,5,15.4,7.4,23.1c2.5-0.9,7.2-1.8,7.2-2.7
		c0-3.5-1.5-7.1-2.5-10.7c4.6,3,9.2,6.1,13.8,9.1c2.7-1.2,6.2-7.3,7.2,1.4c0.9-0.1,1.8-0.1,2.7-0.2l1.6-2.8c1.6-1.6,3.1-3.2,4.7-4.8
		c0.7-3.9,1.3-7.9,2-12.1c-0.3,0,0.7,0.1,1.6-0.2c6.6-2.3,9.2-0.1,8.2,7.1c-0.2,1.7-0.6,3.4-0.9,5.1c-2.2,1.6-4.4,3.2-6.6,4.9
		c0.8,1.9,1.5,3.9,2.3,5.9c0,0.5,0.1,1.1,0.1,1.6c0.5,0,0.9,0,1.4-0.1c3.7-7,7.5-14,11.2-21c0-1,0-2,0-3.1c-1.2-1.7-2.5-3.4-3.7-5.1
		c-1.2-3.8-2.4-7.6-3.6-11.3c-5.1-5.6-10.2-11.2-15.3-16.8C225.6,46.4,223.2,44.5,220.8,42.5L220.8,42.5z M217.5,57.7
		c0.2,0.6,0.5,1.1,0.7,1.7c-2.1,0.8-4.4,2.6-6.1,2.2c-2.9-0.7-5.8-2.6-8-4.8c-0.5-0.5,1.2-5.2,2.7-5.9c1.6-0.8,4.2,0.9,6.4,1.5
		c-0.1,0.5-0.2,1.1-0.2,1.6c-1.8,0.7-3.6,1.5-5.4,2.2c0.1,0.5,0.1,0.9,0.2,1.4L217.5,57.7L217.5,57.7z"/>
	<path class="st19" d="M145.4,61.9c-11.8-0.3-21.7-5.6-31.7-11.8c-7.2-4.4-15.9-6.2-23.9-9.2c-4.8-0.5-9.6-0.9-14.3-1.4
		c-0.5,2.5-1.1,4.9-1.7,7.3c-0.3,1.5-0.7,3.1-1,4.6c-1.3,6.5,1.2,11,7.3,11.5c6.2,0.6,7,4.3,6.9,9.4c0.5,1,1,2,1.5,3
		c3.4,1.5,6.7,3,10.1,4.5c0.9,0.4,1.8,0.9,2.7,1.3c4.9,2.5,9.8,5.1,14.6,7.6c6.5,3.1,13,6.2,19.5,9.3c-6.6-8.1-13.3-16.2-19.9-24.2
		l1.1-1.2c2,1.3,4.1,2.6,6.4,4.1c0.3-2.2,0.5-3.8,0.8-6.3c2.1,3.2,3.6,5.3,5.1,7.6c2.3-1.5,4.2-2.8,7-4.5c0.9,2.4,1.6,4.4,2.4,6.3
		c0.9,0.6,1.8,1.1,2.7,1.7c4.1-2.8,8.4-5.5,12.3-8.5c0.8-0.6,1.6-3.1,1.2-3.6c-1.8-2.2-4.1-3.9-6.2-5.9
		C147.3,63.1,146.4,62.5,145.4,61.9L145.4,61.9z M113.2,69c0.4-0.2,0.8-0.4,1.2-0.5c0.2,0.4,0.6,0.9,0.5,1.2
		c-0.1,0.3-0.7,0.4-1.1,0.6C113.5,69.9,113.4,69.5,113.2,69L113.2,69z"/>
	<path class="st20" d="M247.7,46.8c3.1-5,2.9-10.1-0.2-15c-3.6,2-7.1,4-10.7,6c0,1,0.1,2,0.1,3c0.4,1,0.8,2,1.1,3.1l0,0
		c1.4,2.1,2.8,4.2,4.1,6.3c-0.1,0.4,0,0.8,0.2,1.1c0.8-0.1,1.6-0.1,2.3-0.2c0.3,0,0.5-0.2,0.5-0.5c0.1-0.5,0.4-0.8,0.9-0.9
		c0.3,0,0.5-0.2,0.5-0.5C246.9,48.4,247.3,47.6,247.7,46.8L247.7,46.8z"/>
	<path class="st21" d="M51.6,37c0.7,6.1,1.4,12.1,2.2,19.7c3.6-1.8,5.5-2.8,7.4-3.8c-2-1.7-4.1-3.5-7-5.9c4.4-1,6.5-1.4,8.6-1.9
		c-1-2-2.1-4-3.1-5.9c-1.6-1.4-3.2-2.8-4.8-4.3c-0.8,0.6-1.6,1.2-2.4,1.8C52.2,36.9,51.9,37,51.6,37L51.6,37z"/>
	<path class="st22" d="M225.5,45.9c5.8,5.9,11.7,11.7,17.5,17.6c-0.3-2.8-0.5-5.7-1.1-8.4c-0.5-2.1-1.6-4.2-2.4-6.2l0.1,0.1
		c-3-1.8-6-4.1-9.1-5.3C228.9,43.3,227.1,45.1,225.5,45.9L225.5,45.9z"/>
	<path class="st23" d="M59.6,39.2c1,2,2.1,4,3.1,5.9c3.7,0.6,7.3,1.2,11,1.8c0.5-2.5,1.1-4.9,1.7-7.3c-3.7-1-7.4-2.3-11.2-2.8
		C62.8,36.6,61.2,38.3,59.6,39.2L59.6,39.2z"/>
	<path class="st24" d="M250.7,84.7c-3.7,7-7.5,14-11.2,21c1.5,0.6,2.9,1.1,4.4,1.7c8.2-5.3,7.3-14.4,8.3-22.7
		C251.7,84.6,251.2,84.6,250.7,84.7L250.7,84.7z"/>
	<path class="st25" d="M236.8,37.8c3.6-2,7.1-4,10.7-6c-1.9-1.9-3.8-3.9-5.6-5.8c-1.2,0-2.5,0.1-3.7,0.1c0.9,1,1.8,2,2.6,3
		c-3.9-1.3-8.3,9.8-11.3-0.5c-0.5,0.3-0.9,0.6-1.4,0.9c-0.1,1.8-0.2,3.6-0.3,5.4c1,0.5,2.1,1,3.1,1.5
		C232.9,36.8,234.8,37.3,236.8,37.8L236.8,37.8z"/>
	<path class="st26" d="M247,76.5c1.2,1.7,2.5,3.4,3.7,5.1C249.4,79.9,248.2,78.2,247,76.5z"/>
	<path class="st27" d="M52.5,36.8c0.8-0.6,1.6-1.2,2.4-1.8C54.1,35.5,53.3,36.2,52.5,36.8z"/>
	<path class="st28" d="M247.7,46.8c-0.4,0.8-0.8,1.6-1.3,2.4C246.9,48.4,247.3,47.6,247.7,46.8z"/>
	<path class="st28" d="M245.3,51.3c-1.2,0.1-2.5,0.1-3.6,0.3c0,0.7,0,1.3,0.2,2l-0.2-0.1C242.8,52.8,244.1,52.1,245.3,51.3z"/>
	<path class="st28" d="M246,49.7c-0.5,0.1-0.8,0.4-0.9,0.9C245.6,50.6,245.9,50.3,246,49.7z"/>
	<path class="st29" d="M161.8,152.4c0,1.1,0.1,2.2,0.1,3.3c0,1.9,0,3.7,0,5.6c0,2.1,0,4.1,0,6.2c0.2,7.6,0.5,15.1,0.7,22.7
		c1.9,2.9,3.7,5.7,5.6,8.5c0.9-0.6,1.8-1.1,2.7-1.7v-19c6.5,0.6,12.3,8.1,17.4,0.1c0-0.5,0.1-1,0.1-1.5c-2-2.5-4-5-6-7.6
		c0-0.5,0-1,0-1.5l0,0c-3.1-3.5-6.5-6.7-9.1-10.5c-4.1-5.8-7.6-12-11.4-18.1c0,3.5,0,7,0,10.5L161.8,152.4L161.8,152.4z"/>
	<path class="st1" d="M483.1,108.2c-1.5,6.5-3.1,13.1-4.6,19.6c1,0.1,2.1,0.2,3.1,0.3c0.9-6.6,1.8-13.1,2.8-19.7
		C483.9,108.4,483.5,108.3,483.1,108.2L483.1,108.2z"/>
	<path class="st30" d="M290.2,102.4c0.2-2.8-1.8-6.8,3.3-7.1c-0.7-3.8-1.3-7.5-2-11.2c-1.4,0.6-2.8,1.1-4.2,1.7
		c-2.9,4.5-5.7,9.1-8.5,13.6c-0.9,3-1.8,6-2.7,9c1.5-0.8,3.1-1.7,4.5-2.4c1.9,3.1,3.5,5.8,5.1,8.4
		C287.2,110.4,288.7,106.4,290.2,102.4L290.2,102.4z"/>
	<path class="st31" d="M280.2,122.2c0.3-1.1,0.5-2.2,0.8-3.4c-2.3-1.8-4.6-3.7-6.9-5.5c-1.9,3.4-3.7,6.8-5.6,10.3
		c3.1,1.5,6.2,6.1,9.5,0.2l0.2-0.2C278.8,123.1,279.5,122.6,280.2,122.2L280.2,122.2z"/>
	<path class="st32" d="M278,123.7c-3.2,6-6.3,1.4-9.5-0.2c-1.9,2.3-3.8,4.7-5.7,7C273.2,135.2,275.4,134.2,278,123.7L278,123.7z"/>
	<path class="st5" d="M274.1,113.3c2.3,1.8,4.6,3.7,6.9,5.5c1.4-0.9,2.9-1.8,4.3-2.6c-0.1-0.5-0.1-1-0.2-1.5
		c-1.6-2.7-3.2-5.3-5.1-8.4c-1.4,0.8-3,1.6-4.5,2.4C275,110.2,274.5,111.7,274.1,113.3L274.1,113.3z"/>
	<path class="st33" d="M86.9,72.4c0.1-5.1-0.6-8.8-6.9-9.4c-6.1-0.5-8.6-5-7.3-11.5c-0.5-0.1-0.9-0.2-1.4-0.3
		C67.1,63.5,71.8,69.9,86.9,72.4L86.9,72.4z"/>
	<path class="st34" d="M71.4,51.2c0.5,0.1,0.9,0.2,1.4,0.3c0.3-1.5,0.7-3.1,1-4.6c-3.7-0.6-7.3-1.2-11-1.8c-2.1,0.5-4.2,0.9-8.6,1.9
		c2.9,2.4,4.9,4.1,7,5.9C64.2,49.5,67.2,46.5,71.4,51.2L71.4,51.2z"/>
	<path class="st35" d="M333.2,228.1c-2.3,0-4.5,0-6.8,0.1c-0.8,10.3-0.2,11.1,11.5,14.2c0.5,0.2,1,0.4,1.5,0.6
		c0.9-0.2,1.8-0.3,2.7-0.5c0.4-0.4,0.9-0.8,1.4-1.2c-1.6-1.9-3.1-3.9-4.7-5.8c-1.7-2.1-3.5-4.1-5.2-6.2
		C333.5,228.9,333.4,228.5,333.2,228.1L333.2,228.1z"/>
	<path class="st36" d="M338,242.4c-11.7-3.2-12.3-3.9-11.5-14.2c-0.7-0.1-1.4-0.3-2.1-0.4c-0.7,3.5-1.4,7-2,10.5
		c-0.2,2-0.4,3.9-0.5,5.9c0.3,0.5,0.6,1,1,1.5c0.7,0.1,1.4,0.1,2.1,0.2c1.1,0,2.1,0,3.2,0c3-0.5,6-1.1,9.1-1.6
		C337.5,243.6,337.7,243,338,242.4L338,242.4z"/>
	<path class="st37" d="M328.1,245.8c-1.1,0-2.1,0-3.2,0C326,245.8,327.1,245.8,328.1,245.8z"/>
	<path class="st38" d="M172.1,224.8c-0.2,2.4-0.4,4.9-0.6,7.4c7.3-0.4,14.6-0.7,21.9-1.3c2.5-0.2,5-1,7.5-1.5c0.1-0.5,0.3-1,0.4-1.5
		c-0.1-0.5-0.1-1,0.1-1.4c-0.2-0.9-0.5-1.9-0.7-2.8c-2.3-1.1-4.7-2.1-7-3.2c-3.3-3.1-6.6-6.1-9.9-9.2c-1.9,0-3.7,0-5.6,0
		c-1.7,0-3.5,0.1-5.2,0.1C172.6,215.9,172.4,220.3,172.1,224.8L172.1,224.8z M178.5,229.8c6.1-11.2,10.2-11.7,19.1-1.8
		C190.7,228.6,185.2,229.2,178.5,229.8z"/>
	<path class="st39" d="M191.9,138.9c-3.3-5.4-3.9-10.8-0.9-16.9c1.4-2.7,0.6-6.6,0.7-9.9c-0.4-1.8-0.7-3.7-1.1-5.5
		c-2.9,5.5-6.3,8.3-11.9,3.2c-2-1.8-4.5-3.1-6.8-4.6c-0.4,1.4-0.8,2.7-1.5,5.2c-3.4-4.8-5.6-8.6-8.5-11.8c-1.2-1.4-3.8-1.4-5.6-1.9
		c3.4,6.3,6.6,12.5,10,18.8c5.6-0.9,8.2,3.4,11.3,7.1c2.5,2.9,5.5,5.2,8.5,8C184.3,135.6,184.4,135.8,191.9,138.9L191.9,138.9z"/>
	<path class="st39" d="M188.5,176.6c0.8-3.4,1.9-6.8,2.4-10.3c0.7-4.6,1-9.2,1.4-13.8c0.1-3,0.1-6,0.2-9.1
		c-8.9-1.3-13.1-9.1-18.7-15c-0.5,1-1,2-1.4,3.1c-0.5,12.1,8.4,13.7,18.8,16.2c-5.7,2.8-9.4,4.6-13.1,6.4c1.4,4.5,2.9,9,4.3,13.5
		l0,0c0,0.5,0,1,0,1.5C184.5,171.5,186.5,174,188.5,176.6L188.5,176.6z"/>
	<path class="st33" d="M214.9,97.9c-4.6-3-9.2-6-13.7-9c1,3.6,2.4,7.1,2.5,10.5c0,0.9-4.7,1.8-7.2,2.7c-0.4,2.6-0.8,5.1-1.1,7.6
		c3,1,6.5,3.3,8.9,2.6c6.2-2,10.7-1.8,13.5,5c0-4,0.1-8,0.1-11.9c0.5-1.1,0.9-2.2,1.4-3.2C217.8,100.7,216.3,99.3,214.9,97.9
		L214.9,97.9z"/>
	<path class="st22" d="M195.5,111.8c0.4-2.6,0.8-5.2,1.1-7.7c-2.5-7.7-4.8-15.4-7.4-23.1c-1.6-4.8-3.6-9.5-5.4-14.2
		c-1.6-0.2-3.1-0.4-4.7-0.6c4,10.9,8.2,21.8,12.1,32.8c0.8,2.4,0.2,5.3,0.2,8.1c0.4,1.9,0.7,3.8,1.1,5.7
		C193.5,112.4,194.5,112.1,195.5,111.8z"/>
	<path class="st29" d="M173.8,128.3c5.6,5.9,9.7,13.8,18.7,15c0-1,0-2.1,0.1-3.1c-7.6-3.2-7.7-3.4-5.8-8.6c-3.1-2.9-6.1-5.2-8.6-8.2
		c-3.1-3.8-5.7-8.2-11.4-7.3C169.1,120.2,171.5,124.3,173.8,128.3L173.8,128.3z"/>
	<path class="st40" d="M243.9,107.3c-1.4-0.6-2.8-1.1-4.2-1.7c-0.5,0-0.9,0.1-1.3,0.1c-2.7,3.4-5.4,7-8.1,10.4
		c-2.3,2.4-4.6,4.8-6.9,7.2C234.9,125.1,238.4,114.5,243.9,107.3L243.9,107.3z"/>
	<path class="st41" d="M222.4,123.6c2.5-2.4,4.9-4.9,7.4-7.3c-0.5-2.5-1-5-1.4-7.5c-2.2,0.2-4.3,0.5-7.2,0.8
		c-0.4-0.3-1.7-1.3-3.1-2.3c0,4.1-0.1,8.1-0.1,12.1C219.5,120.8,221,122.2,222.4,123.6z"/>
	<path class="st40" d="M188.2,190.1c0.3-2.6,0.7-5.1,1-7.6c-1.3,2.1-3,4-3.9,6.3c-2.6,7.4-4.9,14.9-7.3,22.4c1.9,0,3.7,0,5.6,0
		c1.3-2.6,2.6-5.2,4-7.8c0.1-1.4,0.2-2.9,0.3-4.3L188.2,190.1L188.2,190.1z"/>
	<path class="st15" d="M380.7,96.5c-2-2.6-3.9-5.3-6.2-8.3c-1.4,1.9-3.1,4.4-5.1,6.5c-0.3,0.3-1.9-0.7-2.9-1.1
		c-2.8-1-5.6-1.9-8.4-2.9c2.2,9.5,1,12.2-6.4,13.4c0.1,2,0.3,4,0.5,6c1,0.9,2,1.9,3.4,3.2c3.3-6.5,6.4-11.2,14.7-6.7
		c4.8,2.6,8.1-3.9,10.5-8.5C380.8,97.5,380.8,97,380.7,96.5L380.7,96.5z"/>
	<path class="st9" d="M352.2,110c-0.1-2-0.3-4-0.4-6c-0.4-0.3-0.5-0.7-0.2-1.2c-2.3-3.1-4.4-6.3-6.9-9.2
		c-6.5-7.1-13.1-14.1-19.7-21.1c-1.8,0.9-3.6,1.8-5.5,2.7c9.2,11.3,18.4,22.7,27.5,34c0.7,0.8,1.4,1.5,2.1,2.3
		c1-0.2,2.1-0.4,3.1-0.6C351.9,110.7,351.9,110.3,352.2,110L352.2,110z"/>
	<path class="st30" d="M414.5,140.3c-0.4,1-0.9,1.9-1.3,2.9c0.5,3.5,0.9,7,1.4,10.5c0.4,0,0.9,0,1.3,0c1.5-0.5,2.9-1.1,4.5-1.4
		c3.8-0.6,7.6-1.1,11.4-1.7c-1.5-1-3-1.9-4.4-2.9c-6.5,2.3-9.9,0-11.4-7.5C415.5,140.3,415,140.3,414.5,140.3L414.5,140.3z"/>
	<path class="st42" d="M416,140.2c0.4-0.5,0.9-0.9,1.3-1.4C416.9,139.2,416.4,139.7,416,140.2z"/>
	<path class="st43" d="M446.9,197c0.6,4.2,1.2,8.3,1.9,12.5c0.4,0,0.7,0,1.1,0c1.5-0.5,3-1,4.5-1.5c0.5-5.6,0.9-11.3,1.4-17
		C452.8,193.1,449.8,195,446.9,197L446.9,197z"/>
	<path class="st44" d="M468.7,238c0.9-1,1.8-2,2.6-3c-3.2-0.9-6.3-2-9.5-2.6c-2.8-0.5-5.7-0.4-8.6-0.6c-1.9,2.1-3.9,4.2-5.9,6.4
		c1,0.1,1.9,0.3,2.9,0.4c3.7,0,7.5-0.1,11.2-0.1c0.9-0.1,1.8-0.3,2.8-0.4C465.7,238,467.2,238,468.7,238L468.7,238z"/>
	<path class="st45" d="M461.4,238.4c-3.7,0-7.5,0.1-11.2,0.1C454,238.5,457.7,238.4,461.4,238.4z"/>
	<path class="st13" d="M298.1,108.7c0.9,0,1.9-0.1,2.8-0.1c-2.6-4.4-5.6-7.9-11.2-5.8c-1.5,4-3,7.9-4.6,11.9c0,0.5,0.1,1,0.2,1.5
		c1.8-1,3.7-2.1,5.5-3.1C293.2,111.6,295.6,110.1,298.1,108.7L298.1,108.7z"/>
	<path class="st46" d="M280.2,122.2c-0.7,0.4-1.4,0.9-2.1,1.4C278.8,123.1,279.5,122.6,280.2,122.2z"/>
	<path class="st5" d="M446.9,197c2.9-2,5.9-3.9,8.8-5.9c1.9-0.4,3.9-0.9,5.8-1.3c1.4-1.7,2.7-3.4,4.1-5.1c2.3-2.9,4.3-2.6,6.1,0.6
		c0.7,1.4,1.3,2.9,2.8,6.2c0-7.4,0-13,0-18.5c0-1.4,0-2.9,0.1-4.3c-1,0.5-2.1,1-3.1,1.6c-2.7,2.2-5.3,4.4-8.3,6.9
		c-2.4-6.4-4.1-11.2-5.9-16c-2,1-3.9,2-6.5,3.3c-0.6-1.4-1.4-3.1-2.1-4.8c-0.9-1-1.9-2.1-2.8-3.1c-2.5-3.4-5.3-5.8-9.9-4.7
		c-0.8,0.2-2-0.9-2.9-1.4c-0.4,0-0.8,0-1.2-0.1c-3.8,0.6-7.6,1-11.4,1.7c-1.5,0.3-3,0.9-4.5,1.4c3.3,2.1,6.6,4.1,9.8,6.2
		c1,0.9,2,1.9,3,2.8l0,0c3.1,1,8.5-2.8,8.4,4.6c5.9,4.4,11.9,8.8,17.4,12.9c-1,0-3.6,0.7-5.6-0.1c-7.3-3.2-14.4-7-21.7-10.3
		c-1.1-0.5-2.8,0.1-4.2,0.3c5.2,7.6,10.2,15.5,15.8,22.8C440.7,195.1,444.2,195.7,446.9,197L446.9,197z"/>
	<path class="st2" d="M457.2,161.3c1.8,4.8,3.6,9.6,5.9,16c3-2.5,5.7-4.7,8.3-6.9c-1.9-3.5-1.1-5.6,2.8-6.1c0-1,0-2,0-3.1
		c0-0.4,0-0.9,0-1.3c-0.1-0.6-0.1-1.1-0.2-1.7c-0.4-0.5-0.8-1.1-1.2-1.6c0.4-4.5,0.9-9,1.3-13.4c-1.4,0-2.8-0.1-4.2-0.1
		c0.4,6.5-4.9,11.6-8.4,11.3C453.8,153.6,456.7,157.7,457.2,161.3L457.2,161.3z"/>
	<path class="st15" d="M470,143.1c1.4,0,2.8,0.1,4.2,0.1c2.4-5,4.9-10,7.3-15.1c-1-0.1-2.1-0.2-3.1-0.3c-3.8-1.4-7.5-2.8-11.3-4.2
		c-0.4,0-0.8,0-1.3,0c0,0.5-0.1,1-0.1,1.5c0,1,0,2,0,3c2.3,0.8,4.6,1.6,9,3c-4.2,2.2-6.6,3.4-8.9,4.6c-1.8,1.5-3.7,3-5.5,4.5
		c-5.3,3-10.6,6.1-15.9,9.1l1.4,7.5c0.9,1,1.9,2.1,2.8,3.1c0.3-9.4,2.6-11.2,11.5-9.2l0,0C459.4,142.3,465.1,143.3,470,143.1
		L470,143.1z"/>
	<path class="st1" d="M474.3,164.3c-5.7,0.4-6.7,2.6-4,6.1c1.4-0.5,3-1,4.5-1.6C474.4,167.3,474.3,165.8,474.3,164.3z"/>
	<path class="st47" d="M474.3,159.9c0,0.4,0,0.9,0,1.3c0.2-0.3,0.4-0.7,0.5-1C474.8,160.2,474.5,160,474.3,159.9z"/>
	<path class="st47" d="M473,156.6c0.4,0.5,0.8,1.1,1.2,1.6C473.7,157.7,473.4,157.1,473,156.6z"/>
	<path class="st48" d="M471.7,185.4c-1.7-3.2-3.7-3.5-6.1-0.6c-1.4,1.7-2.7,3.4-4.1,5.1c-0.9,2.6-1.9,5.1-2.8,7.7
		c1.9,2,3.8,4.1,5.7,6.1l0,0c0.6-2,1.2-4.1,1.9-6.1C468.1,193.4,469.9,189.4,471.7,185.4L471.7,185.4z"/>
	<path class="st44" d="M458.7,197.5c0.9-2.6,1.9-5.1,2.8-7.7c-1.9,0.4-3.9,0.9-5.8,1.3c-0.5,5.6-0.9,11.3-1.4,16.9
		c-2.4,4.8,1.8,5.4,4,7.2c0.6-1.5,1.2-3,1.8-4.5C459.6,206.3,459.2,201.9,458.7,197.5L458.7,197.5z"/>
	<path class="st15" d="M460.1,210.8c-0.6,1.5-1.2,3-1.8,4.5c1.4,1.9,2.8,3.9,4.4,6.1c1.8-0.7,3.7-1.5,6.1-2.5
		c-2.2-3-4.1-5.5-5.9-7.9C462,210.9,461.1,210.8,460.1,210.8L460.1,210.8z"/>
	<path class="st31" d="M460.1,210.8c0.9,0.1,1.9,0.1,2.9,0.2c0.5-2.4,1-4.9,1.5-7.4c-1.9-2-3.8-4.1-5.7-6.1
		C459.2,201.9,459.7,206.3,460.1,210.8L460.1,210.8z"/>
	<path class="st5" d="M343.7,164.4c-0.9,0-1.9,0-2.8,0l0,0c-2.9,5.4-6.5,3.4-9.8,0.8c-2.6-2-4.9-4.6-7.4-6.9c0.6,2,1,4.1,2,5.9
		c3,5.2,6.3,10.3,9.5,15.5c-0.6,0.5-1.3,0.9-2,1.4c-1.6-2.3-3.1-4.6-4.8-6.8c-4.8-5.9-9.7-11.6-14.5-17.4c0.4,2,0.8,4,1.1,6
		c2.4,5.5,4.9,11.1,7.3,16.6c4.2,7.1,11.3,13.3,4.9,24.7c5.2-2.9,8.6-4.8,12-6.7c0.5-3.4,1-6.8,1.5-10.1
		C341.7,179.8,342.7,172.1,343.7,164.4L343.7,164.4z"/>
	<path class="st30" d="M314,182.6c-0.5,1-1.4,2-1.5,3.1c-0.7,9-1.2,18-1.7,27.1c0,4.2-2.8,9.7,4.4,10.4c0.9-3.3,1.9-6.7,2.8-10
		c0.2-0.7,0.6-1.4,0.5-2C317,201.6,315.5,192.1,314,182.6L314,182.6z"/>
	<path class="st47" d="M315,162.9c0,0.9,0,1.8,0,2.7c-0.8,1.1-1.6,2.2-2.4,3.4c0,2.5,0,5,0,7.5c0.4,0,0.8,0,1.3,0.1
		c2.8,1,5.7,2,8.5,3C319.9,174,317.5,168.4,315,162.9L315,162.9z"/>
	<path class="st49" d="M313.8,176.5c-0.4,0-0.8-0.1-1.3-0.1c0.4,0.6,0.8,1.1,1.1,1.6C313.7,177.5,313.8,177,313.8,176.5L313.8,176.5
		z"/>
	<path class="st4" d="M347,109.3c-9.2-11.3-18.4-22.7-27.5-34c-0.5-0.5-1-0.9-1.4-1.4c-2.4,0.5-4.7,1-7.1,1.5
		c-1.4,0-2.8,0.1-4.1,0.1c-0.8,4.1-1.5,8.2-2.4,12.8c-1.7-1.3-3.4-2.6-5-3.9c1,4,2,8.1,3,12.1c3.5,3.6,7.2,7,10.5,10.8
		c3.6,4,6.8,8.4,10.5,12.2c6.2,6.3,8.4,6.4,16.4,1.8c-2-0.4-3.7-0.8-5.4-1.2c-0.1-0.5-0.3-1-0.4-1.5c2.8-1.3,5.9-2.2,8.4-3.9
		C344.3,113.4,345.5,111.1,347,109.3L347,109.3z"/>
	<path class="st50" d="M319.5,123.7c0.5,3.3,1,6.6,1.8,11.8c-2.6-3.9-4.4-6.3-6.1-8.8c0.4,3.2,0.2,6.6,1.3,9.5
		c2.6,6.6,5.8,12.8,8.8,19.2c1.5,1,3,2,4.6,2.9c3.6,2.1,7.3,4.1,11,6.2l0,0c0.3-0.9,0.7-1.8,1.1-2.8c-9.3-0.6-14.1-10.6-8.6-18.5
		c5.2-7.6-2.6-8.6-5.1-12C326,128.2,322.5,126.2,319.5,123.7L319.5,123.7z"/>
	<path class="st13" d="M445.4,95.2c8.3-0.8,16.6-1.6,25-2.3c-0.1-0.9-0.2-1.8-0.2-2.7c-8.3,1.3-17-1.7-25.1,1.8
		C445.1,93,445.2,94.1,445.4,95.2z"/>
	<path class="st17" d="M461.3,57.2c-0.4,2.5-0.9,5-1.3,7.5c2.2-0.3,4.4-0.7,6.7-1.1C468.5,58.3,466,56.7,461.3,57.2z"/>
	<path class="st17" d="M468.3,55.1c0.4-0.2,1-0.3,1.1-0.6s-0.3-0.8-0.4-1.2c-0.4,0.2-1,0.3-1.1,0.6
		C467.8,54.2,468.1,54.7,468.3,55.1z"/>
	<path class="st17" d="M465.9,123.6c0.4,0,0.8,0,1.3,0c-1.2-2.6-2.5-5.1-3.9-8c-7.6,2.6-14.5,4.9-21.3,7.2c-0.4-2.7-0.6-4.3-0.8-5.8
		c-3.3,3.7-6.6,7.3-9.8,10.9c1.9,0.1,3.9,0.1,5.8,0.1C446.4,124,455.8,120.7,465.9,123.6L465.9,123.6z"/>
	<path class="st31" d="M451.6,14.6c-1,2.5-2.1,4.9-3.2,7.6c3.1,2.1,5.9,4,8.4,5.6c1.9-3.1,3.6-5.8,5.2-8.5c-1.7-1.2-3.4-2.7-5.2-3.6
		C455.2,15.1,453.3,15,451.6,14.6z"/>
	<path class="st4" d="M465.9,135.7c2.3-1.2,4.6-2.4,8.9-4.6c-4.4-1.5-6.7-2.3-9-3c-11.4,2.5-22.8,5-34.2,7.5c-2.9,2-5.7,4-8.6,6
		c5.1-0.4,10.3-0.5,15.3-1.2C447.5,139.1,456.7,137.3,465.9,135.7L465.9,135.7z"/>
	<path class="st51" d="M465.9,135.7c-9.2,1.6-18.4,3.4-27.6,4.7c-5.1,0.8-10.2,0.8-15.3,1.2c-0.9,1.1-1.8,2.1-3.9,4.7
		c4-0.8,6.1-1.2,8.2-1.7c11-1.5,22-3,33.1-4.5C462.2,138.7,464,137.2,465.9,135.7z"/>
	<path class="st4" d="M460.3,140.2c-11,1.5-22,3-33.1,4.5c0,1,0,2,0,3.1c1.5,1,3,1.9,4.4,2.9c0.4,0,0.8,0,1.3,0
		c3.8-0.5,7.6-1,11.4-1.4C449.7,146.2,455,143.2,460.3,140.2L460.3,140.2z"/>
	<path class="st17" d="M431.6,135.6c11.4-2.5,22.8-5,34.2-7.5c0-1,0-2,0-3c-9,2-18.1,4-27.1,6C436.3,132.6,433.9,134.1,431.6,135.6z
		"/>
	<path class="st4" d="M438.7,131.1c9-2,18.1-4,27.1-6c0-0.5,0.1-1,0.1-1.5c-10.2-2.8-19.5,0.4-28.7,4.5
		C437.7,129.1,438.2,130.1,438.7,131.1L438.7,131.1z"/>
	<path class="st52" d="M448.7,34.5c-0.2,0.1-0.4,0.2-0.6,0.3C448.3,34.8,448.5,34.6,448.7,34.5L448.7,34.5L448.7,34.5z"/>
	<path class="st17" d="M338.3,78.4c4.2,1.5,8.4,3.2,12.7,4.5c4.2,1.3,8.5,2.2,12.6,3.2c-0.4-6-2.6-7-24.6-9.8
		C338.7,77,338.5,77.7,338.3,78.4z"/>
	<path class="st14" d="M318,73.9c0.5,0.5,1,0.9,1.4,1.4c1.8-0.9,3.6-1.8,5.5-2.7c5.3-0.1,10.7-0.2,16-0.3c0-0.5,0-1,0.1-1.5
		c-3.8-1.2-7.5-2.6-11.4-3.7c-1.4-0.4-3-0.4-4.5-0.6c-3.3,0-6.6-0.1-9.9-0.1c0.7,2,1.4,4,2.2,6c0.7-0.8,1.5-1.7,2.2-2.5
		C319.1,71.2,318.5,72.6,318,73.9L318,73.9z"/>
	<path class="st3" d="M351.1,102.9c-0.2,0.5-0.1,0.9,0.2,1.2c7.3-1.3,8.6-3.9,6.4-13.4c-2.2,0.6-4.4,1.3-7.5,2.1
		C354.9,96.3,355.1,99.6,351.1,102.9z"/>
	<path class="st15" d="M341,45.3c-0.5,4-1,7.9-1.5,11.9c0.4,0.1,0.9,0.1,1.3,0.2c1.3-1,2.5-2.3,3.9-2.7c2.9-0.8,5.9-1.1,8.9-1.7
		c-0.4-1.6-0.8-3.2-1.2-4.8c-2.1,1-4.2,2-6.3,3c-0.8-2-1.6-4-2.4-6C342.8,45.2,341.9,45.3,341,45.3L341,45.3z"/>
	<path class="st1" d="M332.3,61.8c0.9-3.2,1.8-6.3,2.6-9.5c-0.4-0.2-0.8-0.3-1.1-0.5c-2.9,3.8-5.7,7.7-8.6,11.5
		C327.6,62.8,329.9,62.3,332.3,61.8L332.3,61.8z"/>
	<path class="st53" d="M381,66.4c-0.1-1-0.1-2-0.2-3c-2.1,0.6-4.1,1.3-6.2,2c0,0.5,0,1,0,1.4c1.2,0.4,2.3,0.7,3.5,1.1
		c0.9,0.5,1.7,1,2.6,1.5c0.2-0.6,0.3-1.1,0.5-1.6C380.9,67.3,380.9,66.9,381,66.4L381,66.4z"/>
	<path class="st50" d="M350.9,46.6c-1.1-1.4-2.1-2.8-3.2-4.2c-0.9,0.9-1.7,1.8-2.5,2.7C345.9,50.5,348.7,47.3,350.9,46.6L350.9,46.6
		z"/>
	<path class="st32" d="M350.9,46.6c-2.2,0.7-5,3.9-5.7-1.5c-0.5,0-1,0.1-1.5,0.1c0.8,2,1.6,4,2.4,6c2.1-1,4.2-2,6.3-3l-0.1-0.3
		c-0.4-0.4-0.8-0.8-1.2-1.2L350.9,46.6L350.9,46.6z"/>
	<path class="st54" d="M353.6,53c-3,0.5-6,0.8-8.9,1.7c-1.4,0.4-2.6,1.8-3.9,2.7c0.8,0.4,1.5,0.8,2.3,1.2c-0.3-0.4-0.5-0.8-0.8-1.2
		c1.4,0,2.9-0.1,4.3-0.2c-0.3,0.2-0.4,0.5-0.3,0.8C348.7,56.3,351.1,54.7,353.6,53L353.6,53z"/>
	<path class="st17" d="M340.9,70.8c0,0.5-0.1,1-0.1,1.5c1,0.4,2.1,0.9,3.1,1.4c0.2-0.4,0.3-0.8,0.5-1.2
		C343.3,71.9,342.1,71.4,340.9,70.8L340.9,70.8z"/>
	<path class="st50" d="M343,58.6c1.1-0.2,2.2-0.4,3.2-0.5c-0.1-0.3,0-0.6,0.3-0.8c-1.4,0-2.9,0.1-4.3,0.2
		C342.5,57.8,342.8,58.2,343,58.6L343,58.6z"/>
	<path class="st55" d="M380.7,69.4c-0.9-0.5-1.7-1-2.6-1.5c0,0.9,0,1.8,0,2.7c0.9,0,1.8,0.1,2.7,0.1
		C380.8,70.3,380.7,69.8,380.7,69.4L380.7,69.4z"/>
	<path class="st17" d="M318,73.9c0.5-1.3,1.1-2.7,1.6-4c-0.7,0.8-1.5,1.7-2.2,2.5c-0.7-2-1.4-4-2.2-6c-1.4,3-2.9,6-4.3,9
		C313.2,74.9,315.6,74.4,318,73.9L318,73.9z"/>
	<path class="st47" d="M325.3,155.3c-3-6.4-6.2-12.7-8.8-19.2c-1.1-2.9-0.9-6.3-1.3-9.4c-2-3-3.9-6-5.9-9c0.1,2.5,0.3,5,0.4,7.5
		c0.9,7.5,1.8,15,2.8,22.5c0.4,3.1,1,6.1,1.4,9.2c4.9,5.8,9.7,11.6,14.5,17.4c1.7,2.1,3.2,4.5,4.8,6.8c0.6-0.5,1.3-0.9,2-1.4
		c-3.2-5.1-6.4-10.2-9.5-15.5c-1-1.7-1.4-3.9-2-5.9C324.2,157.3,324.8,156.3,325.3,155.3L325.3,155.3z M319.5,153.9
		c-0.2-0.7-0.4-1.3-0.5-2C319.1,152.5,319.3,153.2,319.5,153.9c0.1,0.2,0.2,0.4,0.3,0.6C319.7,154.3,319.6,154.1,319.5,153.9z"/>
	<path class="st14" d="M380.7,69.4c0.1,0.4,0.1,0.9,0.1,1.4c1.6,0.5,3.1,1,4.7,1.6c0.2-0.7,0.5-1.3,0.7-2c-1.7-0.8-3.4-1.7-5-2.5
		C381,68.3,380.8,68.8,380.7,69.4z"/>
	<path class="st8" d="M380.7,81.2c-1.3,0.8-2.6,1.7-3.9,2.6c0.3,0.7,0.6,1.3,0.9,1.9c1.5-0.7,2.9-1.4,4.4-2.1
		C381.6,82.9,381.1,82,380.7,81.2L380.7,81.2z"/>
	<path class="st10" d="M360.8,21c-2.9-0.9-1.4-9-7.2-4.9c0.4,4.1-0.6,9.3,6.2,8.4c0.5-0.1,1.4,2.9,2.1,4.5c3.7,2.3,4.9,0.9,4.4-3.2
		C364.5,24.2,362.7,22.6,360.8,21L360.8,21z"/>
	<path class="st7" d="M362,29c-0.7-1.6-1.6-4.6-2.1-4.5c-6.8,0.9-5.8-4.3-6.2-8.4c-0.5,0.1-0.9,0.2-1.4,0.3
		c-0.8,0.5-1.6,0.9-2.2,1.6c-1.7,1.8-3.3,3.8-4.9,5.7c1.8,1.6,3.4,3.5,5.4,4.6c1.3,0.8,3.2,0.4,4.8,0.5
		C357.5,28.8,359.7,28.9,362,29L362,29z"/>
	<path class="st42" d="M179.1,66.2c1.6,0.2,3.1,0.4,4.7,0.6c1.9-0.6,3.9-1.1,5.8-1.7c0-1,0-2.1,0-3.1l0,0c0-0.5,0.1-1,0.1-1.5
		c2.2-0.2,4.5-0.3,8.2-0.6c-2.6-4.4-4.3-7.5-6.1-10.6c-2.1,1.2-3.9,2.2-6,3.5c0.7,1.5,1.4,3.2,2.1,4.7c-2.7,3.3-12.2-3.6-15.5-10.8
		c-0.8,1.1-1.7,2.1-2.5,3.2c0.4,2.7,1.5,5.6,1,8c-0.5,2.6-2.6,4.8-4.1,7.1c0.1,0.4,0.1,0.9,0.1,1.3C170.9,66.3,175,66.2,179.1,66.2
		L179.1,66.2z"/>
	<path class="st56" d="M241.4,52.7c0-0.5,0-1-0.1-1.5c-0.2-0.3-0.3-0.7-0.2-1.1c-1.3-2.1-2.7-4.1-3.9-6.2l0,0
		c-0.5-0.5-1.1-1-1.5-1.5c-1.7-2-3.4-4-5.2-5.9c-1-0.5-2-1-3-1.5c-1.6,1.5-3.3,2.9-5,4.3c-0.6,1.1-1.1,2.2-1.7,3.2
		c2.3,2,4.6,3.9,6.9,5.7c1.8-0.4,3.9-1.7,5.4-1C236.1,48.4,238.7,50.8,241.4,52.7L241.4,52.7z"/>
	<path class="st20" d="M229.5,28.6c3,10.3,7.4-0.8,11.3,0.5c-0.9-1-1.8-2-2.6-3c-1,0-2,0-3,0c-1.4,0.4-2.8,0.7-4.2,1.1
		C230.5,27.7,230,28.2,229.5,28.6L229.5,28.6z"/>
	<path class="st57" d="M222.3,40.2c1.5-1.3,3-2.5,4.5-3.8c0.1-1.5,0.2-3.1,0.3-4.6C225.5,34.6,223.9,37.4,222.3,40.2L222.3,40.2z"/>
	<path class="st58" d="M231,27.2c1.4-0.4,2.8-0.7,4.2-1.1C233.8,26.5,232.4,26.8,231,27.2z"/>
	<path class="st26" d="M189.6,62c0,1,0,2.1,0,3.1c1.9,2.5,3.8,4.9,5.7,7.4c0.2-0.1,0.4-0.2,0.6-0.3c-0.2,0.1-0.4,0.2-0.6,0.3
		c1.2,1.7,2.1,3.8,3.7,4.8c6.8,4.2,13.8,8.1,22.6,13.2c-2.3-3.7-3.3-6.5-5.3-8.2c-7.7-6.6-15.7-12.9-23.6-19.2
		C191.9,62.5,190.7,62.3,189.6,62L189.6,62z"/>
	<path class="st59" d="M242.3,93.3c0.3-1.7,0.7-3.4,0.9-5.1c1-7.2-1.6-9.4-8.2-7.1c-0.9,0.3-1.8,0.2-1.6,0.2
		c-0.7,4.2-1.4,8.2-2,12.1C235,93.3,238.7,93.3,242.3,93.3L242.3,93.3z"/>
	<path class="st60" d="M218.1,107.3c1.3,1,2.7,2,3,2.3c2.8-0.3,4.9-0.6,7-0.8c1.4-5.9,6.4-3.6,9.9-4.8c-0.8-1.9-1.5-3.9-2.3-5.9
		c-3,0-6,0-9,0c-0.5,0.9-1.1,1.9-1.6,2.8c-0.9,1-1.8,2-2.8,3c-0.9,0-1.9,0.1-2.8,0.1C219.1,105.1,218.6,106.2,218.1,107.3
		L218.1,107.3z"/>
	<path class="st61" d="M217.5,57.7h-9.8c-0.1-0.5-0.1-0.9-0.2-1.4c1.8-0.7,3.6-1.5,5.4-2.2c0.1-0.5,0.2-1.1,0.2-1.6
		c-2.2-0.6-4.8-2.3-6.4-1.5c-1.5,0.8-3.2,5.4-2.7,5.9c2.2,2.2,5,4,8,4.8c1.8,0.5,4.1-1.4,6.1-2.2C218,58.8,217.7,58.2,217.5,57.7
		L217.5,57.7z M208.9,51.7l0.2,0.5h-0.4L208.9,51.7L208.9,51.7z"/>
	<path class="st26" d="M238,104c-3.5,1.1-8.4-1.1-9.9,4.8c0.5,2.5,1,5,1.4,7.5c2.8-3.5,5.7-7.1,8.5-10.6
		C238,105.1,238,104.6,238,104L238,104z"/>
	<path class="st24" d="M226.7,98.2c3,0,6,0,9,0c2.2-1.6,4.4-3.2,6.6-4.9c-3.6,0-7.3,0-10.9,0.1C229.8,95,228.3,96.6,226.7,98.2z"/>
	<path class="st24" d="M219.5,103.3c0.9,0,1.9-0.1,2.8-0.1c0-0.9,0.1-1.8,0.1-2.8c-1-8.7-4.5-2.6-7.2-1.4
		C216.6,100.5,218.1,101.9,219.5,103.3L219.5,103.3z"/>
	<path class="st62" d="M222.3,101.3c0.1,0.9,0.2,1.8,0.4,2.8c0.7-1.1,1.5-2.3,2.3-3.4C224,100.9,223.1,101.2,222.3,101.3z"/>
	<path class="st26" d="M189.7,60.5c0,0.5-0.1,1-0.1,1.5C189.6,61.4,189.6,61,189.7,60.5z"/>
	<path class="st60" d="M173.8,128.3c-2.4-4-4.7-8.1-7.1-12.1c-3.4-6.5-6.7-12.9-10.1-19.4c-0.9-0.6-1.8-1.2-2.6-1.8
		c-1.9-1-3.9-2-5.8-3c-0.5-0.5-0.9-1-1.4-1.4c-1.5-2-2.9-4-4.4-6l0,0c-0.5-0.5-0.9-1.1-1.4-1.6c0-0.4-0.1-0.9-0.1-1.3
		c-0.9-0.6-1.8-1.1-2.7-1.7c-0.5,0-1,0-1.5,0.1c-0.4,2-0.9,4.1-1.3,6.1c3.6,3.9,9.1,7.1,5.5,14.1c2.7,1.8,5.5,3.6,8.2,5.5
		c4.9,3.4,9.8,6.9,9.4,14.3c0,0.8,1.5,1.6,2.2,2.4c1.8,0.6,3.9,0.7,5.3,1.8c2.4,2,4.2,4.7,6.3,7.1
		C172.9,130.4,173.4,129.4,173.8,128.3L173.8,128.3z"/>
	<path class="st29" d="M141,81.7c0,0.4,0.1,0.9,0.1,1.3c0.5,0.5,0.9,1.1,1.4,1.6l0,0c1.5,0,2.9,0,4.4-0.1c0.3-0.8,0.6-1.7,1.8-4.9
		c2.3,6.4,3.8,10.9,5.4,15.3c0.9,0.6,1.8,1.2,2.6,1.8c1.9,0.6,4.5,0.7,5.7,2c3,3.4,5.3,7.3,8.6,12.2c0.7-2.6,1.1-4,1.5-5.4
		c-4.8-9.6-9.7-19.2-14.6-29.1c2.5-3.3,1.1-11.3,9-10.2c0-0.4-0.1-0.9-0.1-1.3c-6.1-0.4-12.2-0.9-18.4-1.3c2.1,1.9,4.4,3.7,6.2,5.9
		c0.4,0.5-0.3,3-1.2,3.6C149.4,76.2,145.1,78.9,141,81.7L141,81.7z"/>
	<path class="st39" d="M141,100.3c3.6-7.1-1.9-10.2-5.5-14.1c-1.3-1.4-2.6-2.8-3.9-4.2c1.2-0.6,2.5-1.2,3.7-1.9c0.5,0,1,0,1.5,0l0,0
		c0.5,0,1-0.1,1.5-0.1c-0.7-1.9-1.5-3.9-2.4-6.3c-2.7,1.8-4.7,3.1-7,4.5c-1.5-2.2-3-4.4-5.1-7.6c-0.3,2.5-0.5,4.1-0.8,6.3
		c-2.4-1.5-4.4-2.8-6.4-4.1l-1.1,1.2c6.7,8,13.3,16,19.9,24.1C137.3,98.8,139.1,99.5,141,100.3L141,100.3z"/>
	<path class="st41" d="M113.2,69c0.2,0.4,0.3,0.8,0.5,1.3c0.4-0.2,1-0.3,1.1-0.6c0.1-0.3-0.3-0.8-0.5-1.2
		C114,68.7,113.6,68.9,113.2,69L113.2,69z"/>
	<path class="st57" d="M231,36.3c1.8,2,3.6,4,5.4,6c0.2-0.5,0.3-1,0.5-1.6c0-1-0.1-2-0.1-3C234.9,37.3,232.9,36.8,231,36.3z"/>
	<path class="st22" d="M236.7,42.3c1.4,2.1,2.8,4.2,4.1,6.3C239.5,46.5,238.1,44.4,236.7,42.3z"/>
	<path class="st58" d="M237.4,40.8c-0.2,0.5-0.3,1-0.5,1.6c0.5,0.5,1.1,1,1.6,1.5C238.2,42.8,237.8,41.8,237.4,40.8L237.4,40.8z"/>
	<path class="st19" d="M172.4,131.4c-2.1-2.4-4-5.1-6.3-7.1c-1.3-1.2-3.5-1.2-5.3-1.8c0.2,1.9,0.4,3.8,0.5,5.7
		c1.4,1.8,3.1,3.4,4.3,5.4c4.2,6.8,8.4,13.6,12.5,20.5c3.7-1.8,7.4-3.6,13.1-6.4C180.8,145.1,172,143.5,172.4,131.4L172.4,131.4z"/>
	<path class="st40" d="M178.2,154c-4.2-6.8-8.3-13.7-12.5-20.5c-1.2-1.9-2.9-3.6-4.3-5.4c-0.3,3.6-0.5,7.1-0.8,10.7
		c0.5,0,1,0,1.5,0.1c3.8,6.1,7.3,12.3,11.4,18.1c2.6,3.8,6,7,9.1,10.5C181,163,179.6,158.5,178.2,154L178.2,154z"/>
	<path class="st24" d="M162.6,190.1c-0.6,3-1.2,6.1-1.8,9.1c0.1,10.5,0.5,10.9,12,12.2c1.7,0,3.5-0.1,5.2-0.1
		c2.4-7.5,4.7-15,7.3-22.4c0.8-2.3,2.5-4.2,3.9-6.3c-0.3-1.5-0.6-3-0.9-4.4c-5.1,8.1-10.9,0.5-17.4-0.1v19c-0.9,0.6-1.8,1.1-2.7,1.7
		C166.3,195.8,164.5,193,162.6,190.1L162.6,190.1z"/>
	<path class="st23" d="M175,230.3c8.3-0.7,15.1-1.3,23.7-2C187.6,217.2,182.6,217.8,175,230.3z"/>
	<path class="st19" d="M166.8,66.4c-7.9-1.1-6.4,6.8-9,10.2c5,9.9,9.8,19.5,14.6,29.1c2.3,1.6,4.8,2.8,6.9,4.7
		c5.7,5.2,9.1,2.3,12-3.3c0-2.7,0.6-5.7-0.2-8.1c-3.8-11-8-21.9-12.1-32.8C175,66.2,170.9,66.3,166.8,66.4L166.8,66.4z"/>
	<path class="st15" d="M423.2,170.1c1.4-0.1,3.1-0.8,4.2-0.3c7.3,3.3,14.4,7.1,21.7,10.3c2,0.9,4.6,0.1,5.6,0.1
		c-5.6-4.1-11.5-8.5-17.4-12.9c-2.8-1.5-5.6-3.1-8.4-4.6l0,0c-1-0.9-2-1.9-3-2.8c-3.3-2.1-6.6-4.1-9.8-6.2c-0.4,0-0.9,0-1.3,0
		c0,1-0.1,2-0.1,3C417.4,161.1,420.3,165.6,423.2,170.1L423.2,170.1z"/>
	<path class="st1" d="M470,143.1c-4.9,0.2-10.6-0.8-9.9,7.6c0.1,0.2,0.2,0.4,0.3,0.6c-0.1-0.2-0.2-0.4-0.3-0.6
		c-8.9-2-11.2-0.2-11.5,9.2c0.8,1.7,1.5,3.3,2.1,4.8c2.5-1.3,4.5-2.3,6.5-3.3c-0.5-3.6-3.4-7.7,4.4-6.9
		C465.1,154.7,470.5,149.6,470,143.1L470,143.1z"/>
	<path class="st14" d="M444.4,149.3c-3.8,0.5-7.6,1-11.4,1.4c1,0.5,2.1,1.6,2.9,1.4c4.5-1.1,7.4,1.3,9.9,4.7
		C445.3,154.2,444.9,151.8,444.4,149.3L444.4,149.3z"/>
	<path class="st51" d="M429.4,162.4c2.8,1.5,5.6,3.1,8.4,4.6C437.9,159.6,432.4,163.5,429.4,162.4z"/>
	<path class="st51" d="M325.3,155.3c-0.5,1-1,2-1.5,3c2.4,2.3,4.7,4.9,7.4,6.9c3.3,2.5,6.9,4.5,9.8-0.8c-3.7-2.1-7.3-4.1-11-6.2
		C328.3,157.3,326.8,156.3,325.3,155.3L325.3,155.3z"/>
	<path class="st49" d="M312.6,169c0.8-1.1,1.6-2.2,2.4-3.4C314.2,166.7,313.4,167.8,312.6,169z"/>
	<path class="st50" d="M319.5,153.9c-0.2-0.7-0.3-1.3-0.5-2C319.1,152.5,319.3,153.2,319.5,153.9L319.5,153.9z"/>
	<path class="st50" d="M319.5,153.9c0.1,0.2,0.2,0.4,0.3,0.6C319.7,154.3,319.6,154.1,319.5,153.9L319.5,153.9z"/>
	<path class="st63" d="M195.3,72.5c0.2-0.1,0.4-0.2,0.6-0.3C195.7,72.2,195.5,72.4,195.3,72.5L195.3,72.5L195.3,72.5z"/>
	<path class="st62" d="M154,95c-1.6-4.5-3.1-8.9-5.4-15.3c-1.2,3.2-1.5,4-1.8,4.9c0.4,2,0.9,4,1.3,6c0,0.5,0.1,1,0.1,1.5
		C150.2,93,152.1,94,154,95z"/>
	<path class="st19" d="M135.3,80.1c-1.2,0.6-2.5,1.2-3.7,1.9c1.3,1.4,2.6,2.8,3.9,4.2c0.4-2,0.9-4.1,1.3-6.1l0,0
		C136.3,80.1,135.8,80.1,135.3,80.1L135.3,80.1z"/>
	<path class="st63" d="M148.1,90.5c-0.4-2-0.9-4-1.3-6c-1.5,0-2.9,0-4.4,0.1c1.5,2,2.9,4,4.4,6C147.3,90.6,147.7,90.6,148.1,90.5
		L148.1,90.5z"/>
	<path class="st64" d="M148.1,90.5c-0.4,0-0.9,0-1.3,0c0.5,0.5,0.9,1,1.4,1.4C148.2,91.5,148.2,91,148.1,90.5L148.1,90.5z"/>
	<path class="st63" d="M142.5,84.6c-0.5-0.5-0.9-1.1-1.4-1.6C141.6,83.5,142,84.1,142.5,84.6z"/>
	<path class="st8" d="M460.1,150.7c0.1,0.2,0.2,0.4,0.3,0.6C460.3,151.1,460.2,150.9,460.1,150.7L460.1,150.7L460.1,150.7z"/>
</g>
</svg>
