<svg xmlns="http://www.w3.org/2000/svg" width="905" height="500"><rect width="905" height="500" x="0" y="0" fill="#ced4da" id="backgorund"/><g id="viz"><g transform="translate(0,0)"><g transform="translate(100,50)"><g id="Bronce" fill="#cd7f32"><rect x="335.8639705882353" y="300" width="67.84007352941175" height="50"/><rect x="470.4319852941177" y="250" width="67.84007352941175" height="100"/><rect x="201.29595588235296" y="200" width="67.84007352941175" height="150"/><rect x="66.72794117647061" y="200" width="67.84007352941175" height="150"/></g><g id="Plata" fill="#9d9696"><rect x="335.8639705882353" y="250" width="67.84007352941175" height="50"/><rect x="470.4319852941177" y="250" width="67.84007352941175" height="0"/><rect x="201.29595588235296" y="150" width="67.84007352941175" height="50"/><rect x="66.72794117647061" y="100" width="67.84007352941175" height="100"/></g><g id="Oro" fill="#bf9b0b"><rect x="335.8639705882353" y="150" width="67.84007352941175" height="100"/><rect x="470.4319852941177" y="250" width="67.84007352941175" height="0"/><rect x="201.29595588235296" y="50.000000000000014" width="67.84007352941175" height="100"/><rect x="66.72794117647061" y="0" width="67.84007352941175" height="100"/></g><g id="xAxis" transform="translate(0,350)" fill="none" font-size="10" font-family="sans-serif" text-anchor="middle"><path class="domain" stroke="currentColor" d="M0,0H605"/><g class="tick" opacity="1" transform="translate(100.64797794117649,0)"><line stroke="currentColor" y2="6"/><text fill="currentColor" y="9" dy="0.71em">Brasil</text></g><g class="tick" opacity="1" transform="translate(235.21599264705884,0)"><line stroke="currentColor" y2="6"/><text fill="currentColor" y="9" dy="0.71em">Estados Unidos</text></g><g class="tick" opacity="1" transform="translate(369.78400735294116,0)"><line stroke="currentColor" y2="6"/><text fill="currentColor" y="9" dy="0.71em">México</text></g><g class="tick" opacity="1" transform="translate(504.35202205882354,0)"><line stroke="currentColor" y2="6"/><text fill="currentColor" y="9" dy="0.71em">Chile</text></g></g><g id="yAxis" fill="none" font-size="10" font-family="sans-serif" text-anchor="end"><path class="domain" stroke="currentColor" d="M0,350V0"/><g class="tick" opacity="1" transform="translate(0,350)"><line stroke="currentColor" x2="-6"/><text fill="currentColor" x="-9" dy="0.32em">0</text></g><g class="tick" opacity="1" transform="translate(0,300)"><line stroke="currentColor" x2="-6"/><text fill="currentColor" x="-9" dy="0.32em">1</text></g><g class="tick" opacity="1" transform="translate(0,250)"><line stroke="currentColor" x2="-6"/><text fill="currentColor" x="-9" dy="0.32em">2</text></g><g class="tick" opacity="1" transform="translate(0,200)"><line stroke="currentColor" x2="-6"/><text fill="currentColor" x="-9" dy="0.32em">3</text></g><g class="tick" opacity="1" transform="translate(0,150)"><line stroke="currentColor" x2="-6"/><text fill="currentColor" x="-9" dy="0.32em">4</text></g><g class="tick" opacity="1" transform="translate(0,100)"><line stroke="currentColor" x2="-6"/><text fill="currentColor" x="-9" dy="0.32em">5</text></g><g class="tick" opacity="1" transform="translate(0,50.000000000000014)"><line stroke="currentColor" x2="-6"/><text fill="currentColor" x="-9" dy="0.32em">6</text></g><g class="tick" opacity="1" transform="translate(0,0)"><line stroke="currentColor" x2="-6"/><text fill="currentColor" x="-9" dy="0.32em">7</text></g></g><text y="346" x="605" text-anchor="end" style="font-family: Arial, sans-serif; font-size: 12px; fill: rgb(123, 123, 123); font-weight: bold;">País</text></g><text x="4" y="4" style="font-family: Arial, sans-serif; font-size: 12px; fill: black; font-weight: bold; dominant-baseline: hanging;"/></g><g id="grid"><rect x="0" y="0" width="805" height="500" fill="none" stroke="#ccc"/></g></g><g id="legend" transform="translate(505,50)"><g transform="translate(5,0)"><g class="legendColor" transform="translate(0,0)"><g class="legendCells" transform="translate(0,15.5)"><g class="cell" transform="translate(0, 0)"><rect class="swatch" height="15" width="15" style="fill: rgb(205, 127, 50);"/><text class="label" transform="translate( 20, 12.5)" font-family="&quot;Arial&quot;, sans-serif" font-size="10px"><tspan x="0" dy="0em">Bronce</tspan></text></g><g class="cell" transform="translate(0, 20.5)"><rect class="swatch" height="15" width="15" style="fill: rgb(191, 155, 11);"/><text class="label" transform="translate( 20, 12.5)" font-family="&quot;Arial&quot;, sans-serif" font-size="10px"><tspan x="0" dy="0em">Oro</tspan></text></g><g class="cell" transform="translate(0, 41)"><rect class="swatch" height="15" width="15" style="fill: rgb(157, 150, 150);"/><text class="label" transform="translate( 20, 12.5)" font-family="&quot;Arial&quot;, sans-serif" font-size="10px"><tspan x="0" dy="0em">Plata</tspan></text></g></g><text class="legendTitle" font-family="&quot;Arial&quot;, sans-serif" font-size="12px" font-weight="bold"><tspan x="0" dy="0em">Colors</tspan></text></g></g></g></svg>